/* XPM */
static char *_1994f31d7a2401bab429f30632bd5c3lgzKj3hn9XQE3Ufx[] = {
/* columns rows colors chars-per-pixel */
"64 64 211 2 ",
"   c #FFBA00",
".  c #FFBA01",
"X  c #FFBB02",
"o  c #FFBB03",
"O  c #FFBB04",
"+  c #FFBB05",
"@  c #FFBC05",
"#  c #FFBC06",
"$  c #FFBC07",
"%  c #FFBC08",
"&  c #FFBC09",
"*  c #FFBD09",
"=  c #FFBD0A",
"-  c #FFBD0B",
";  c #FFBD0C",
":  c #FFBE0D",
">  c #FFBE0E",
",  c #FFBE0F",
"<  c #FFBE10",
"1  c #FFBE11",
"2  c #FFBF11",
"3  c #FFBF13",
"4  c #FFBF14",
"5  c #FFC015",
"6  c #FFC016",
"7  c #FFC017",
"8  c #FFC018",
"9  c #FFC119",
"0  c #FFC11B",
"q  c #FFC11C",
"w  c #FFC21C",
"e  c #FFC21D",
"r  c #FFC21E",
"t  c #FFC21F",
"y  c #FFC320",
"u  c #FFC321",
"i  c #FFC322",
"p  c #FFC323",
"a  c #FFC424",
"s  c #FFC425",
"d  c #FFC426",
"f  c #FFC527",
"g  c #FFC528",
"h  c #FFC529",
"j  c #FFC52A",
"k  c #FFC52B",
"l  c #FFC62D",
"z  c #FFC62E",
"x  c #FFC72F",
"c  c #FFC730",
"v  c #FFC731",
"b  c #FFC732",
"n  c #FFC833",
"m  c #FFC835",
"M  c #FFC936",
"N  c #FFC937",
"B  c #FFC938",
"V  c #FFC939",
"C  c #FFCA3A",
"Z  c #FFCA3B",
"A  c #FFCA3C",
"S  c #FFCA3D",
"D  c #FFCB3D",
"F  c #FFCB3E",
"G  c #FFCB3F",
"H  c #FFCB40",
"J  c #FFCC41",
"K  c #FFCC42",
"L  c #FFCC43",
"P  c #FFCC44",
"I  c #FFCD45",
"U  c #FFCD46",
"Y  c #FFCE49",
"T  c #FFCE4A",
"R  c #FFCF4D",
"E  c #FFCF4E",
"W  c #FFCF4F",
"Q  c #FFD051",
"!  c #FFD052",
"~  c #FFD155",
"^  c #FFD156",
"/  c #FFD257",
"(  c #FFD259",
")  c #FFD35E",
"_  c #FFD460",
"`  c #FFD461",
"'  c #FFD562",
"]  c #FFD564",
"[  c #FFD666",
"{  c #FFD667",
"}  c #FFD669",
"|  c #FFD76A",
" . c #FFD76D",
".. c #FFD86D",
"X. c #FFD86E",
"o. c #FFD86F",
"O. c #FFD870",
"+. c #FFD972",
"@. c #FFD973",
"#. c #FFD974",
"$. c #FFDA75",
"%. c #FFDB7A",
"&. c #FFDC7D",
"*. c #FFDC7E",
"=. c #FFDC7F",
"-. c #FFDD81",
";. c #FFDD83",
":. c #FFDE84",
">. c #FFDE85",
",. c #FFE08B",
"<. c #FFE08C",
"1. c #FFE191",
"2. c #FFE192",
"3. c #FFE293",
"4. c #FFE294",
"5. c #FFE395",
"6. c #FFE396",
"7. c #FFE397",
"8. c #FFE39A",
"9. c #FFE49A",
"0. c #FFE49B",
"q. c #FFE49C",
"w. c #FFE59C",
"e. c #FFE59E",
"r. c #FFE59F",
"t. c #FFE5A0",
"y. c #FFE6A1",
"u. c #FFE6A2",
"i. c #FFE6A3",
"p. c #FFE6A4",
"a. c #FFE7A5",
"s. c #FFE7A7",
"d. c #FFE7A8",
"f. c #FFE8A9",
"g. c #FFE8AC",
"h. c #FFE9AC",
"j. c #FFE9AD",
"k. c #FFE9AE",
"l. c #FFE9AF",
"z. c #FFEAAF",
"x. c #FFEAB0",
"c. c #FFEAB1",
"v. c #FFEAB2",
"b. c #FFEAB3",
"n. c #FFEBB5",
"m. c #FFEBB6",
"M. c #FFECB7",
"N. c #FFECB8",
"B. c #FFECB9",
"V. c #FFECBA",
"C. c #FFEDBB",
"Z. c #FFEDBC",
"A. c #FFEDBD",
"S. c #FFEDBE",
"D. c #FFEEBF",
"F. c #FFEEC0",
"G. c #FFEEC1",
"H. c #FFEEC2",
"J. c #FFEFC4",
"K. c #FFF0C6",
"L. c #FFF0C7",
"P. c #FFF0C8",
"I. c #FFF0C9",
"U. c #FFF1CB",
"Y. c #FFF1CC",
"T. c #FFF1CD",
"R. c #FFF2CF",
"E. c #FFF3D1",
"W. c #FFF3D2",
"Q. c #FFF3D3",
"!. c #FFF3D4",
"~. c #FFF4D5",
"^. c #FFF4D6",
"/. c #FFF4D7",
"(. c #FFF4D8",
"). c #FFF5DA",
"_. c #FFF5DC",
"`. c #FFF6DE",
"'. c #FFF6DF",
"]. c #FFF7E1",
"[. c #FFF7E2",
"{. c #FFF7E4",
"}. c #FFF8E4",
"|. c #FFF8E5",
" X c #FFF8E6",
".X c #FFF9E7",
"XX c #FFF8E8",
"oX c #FFF9E9",
"OX c #FFF9EA",
"+X c #FFFAEB",
"@X c #FFFAEC",
"#X c #FFFAED",
"$X c #FFFAEE",
"%X c #FFFBEF",
"&X c #FFFBF0",
"*X c #FFFBF1",
"=X c #FFFBF2",
"-X c #FFFCF2",
";X c #FFFCF3",
":X c #FFFCF4",
">X c #FFFCF5",
",X c #FFFDF6",
"<X c #FFFDF7",
"1X c #FFFDF8",
"2X c #FFFDF9",
"3X c #FFFEFA",
"4X c #FFFEFB",
"5X c #FFFEFC",
"6X c #FFFEFD",
"7X c #FFFFFE",
"8X c white",
/* pixels */
"8X8X8X8X8X8X8X8X8X8X8X8X8X8X8X8X8X8X8X8X8X8X8X8X8X8X8X8X8X8X8X8X8X8X8X8X8X8X8X8X8X8X8X8X8X8X8X8X8X8X8X8X8X8X8X8X8X8X8X8X8X8X8X8X",
"8X8X8X8X8X8X8X8X8X8X8X8X8X8X8X8X8X8X8X8X8X8X8X8X8X8X8X8X8X8X8X8X8X8X8X8X8X8X8X8X8X8X8X8X8X8X8X8X8X8X8X8X8X8X8X8X8X8X8X8X8X8X8X8X",
"8X8X8X8X8X8X8X8X8X8X8X8X8X8X8X8X8X8X8X8X8X8X8X8X8X8X8X8X8X8X8X8X8X8X8X8X8X8X8X8X8X8X8X8X8X8X8X8X8X8X8X8X8X8X8X8X8X8X8X8X8X8X8X8X",
"8X8X8X8X8X8X8X8X8X8X8X8X8X8X8X8X8X8X8X8X8X8X8X8X8X8X8X8X8X8X8X8X8X8X8X8X8X8X8X8X8X8X8X8X8X8X8X8X8X8X8X8X8X8X8X8X8X8X8X8X8X8X8X8X",
"8X8X8X8X8X8X8X8X8X8X8X8X8X8X8X8X8X8X8X8X8X8X8X8X8X8X8X8X8X8X8X8X8X8X8X8X8X8X8X8X8X8X8X8X8X8X8X8X8X8X8X8X8X8X8X8X8X8X8X8X8X8X8X8X",
"8X8X8X8X8X8X8X8X8X8X8X8X8X8X8X8X8X8X8X8X8X8X8X8X8X8X8X8X8X8X8X8X8X8X8X8X8X8X8X8X8X8X8X8X8X8X8X8X8X8X8X8X8X8X8X8X8X8X8X8X8X8X8X8X",
"8X8X8X8X8X8X8X8X8X8X8X8X8X8X8X8X8X8X8X8X8X8X8X8X8X8X8X8X8X8X8X8X8X8X8X8X8X8X8X8X8X8X8X8X8X8X8X8X8X8X8X8X8X8X8X8X8X8X8X8X8X8X8X8X",
"8X8X8X8X8X8X8X8X8X8X8X8X8X8X8X8X8X8X8X8X8X8X8X8X8X8X8X8X8X8X8X8X8X8X8X8X8X8X8X8X8X8X8X8X8X8X8X8X8X8X8X8X8X8X8X8X8X8X8X8X8X8X8X8X",
"8X8X8X8X8X8X8X8X8X8X8X8X8X8X8X8X8X8X8X8X8X8X8X8X8X8X8X8X8X8X8X8X8X8X8X8X8X8X8X8X8X8X8X8X8X8X8X8X8X8X8X8X8X8X8X8X8X8X8X8X8X8X8X8X",
"8X8X8X8X8X8X8X8X8X8X8X8X8X8X8X8X8X8X8X8X8X8X8X8X8X8X8X8X8X8X8X8X8X8X8X8X8X8X8X8X8X8X8X8X8X8X8X8X8X8X8X8X8X8X8X8X8X8X8X8X8X8X8X8X",
"8X8X8X8X8X8X8X8X8X8X8X8X8X8X8X8X8X8X8X8X8X8X8X8X8X8X8X8X8X8X8X8X8X8X8X8X8X8X8X8X8X8X8X8X8X8X8X8X8X8X8X8X8X8X8X8X8X8X8X8X8X8X8X8X",
"8X8X8X8X8X8X8X8X8X8X8X8X8X8X8X8X8X8X8X8X8X4X4X8X8X8X4X4X<X<X<X<X<X<X4X<X<X4X8X8X8X8X8X8X8X8X8X8X8X8X8X8X8X8X8X8X8X8X8X8X8X8X8X8X",
"8X8X8X8X8X8X8X8X8X8X8X8X8X8X8X8X8X8X8X8X4X}.R.R._.).E.K.G.S.C.C.C.C.C.C.C.G._.<X8X8X8X8X8X8X8X8X8X8X8X8X8X8X8X8X8X8X8X8X8X8X8X8X",
"8X8X8X8X8X8X8X8X8X8X8X8X8X8X8X8X8X8X8X8X;XC.o.W [ +.[ ~ T L L L H D H H H L [ S.<X8X8X8X8X8X8X8X8X8X8X8X8X8X8X8X8X8X8X8X8X8X8X8X",
"8X8X8X8X8X8X8X8X8X8X8X8X8X8X8X8X8X8X8X8X$Xr.n & , 6 1 , & & & & & & $ & & & , ( R.4X8X8X8X8X8X8X8X8X8X8X8X8X8X8X8X8X8X8X8X8X8X8X",
"8X8X8X8X8X8X8X8X8X8X8X8X8X8X8X8X8X8X8X8X$X0.k O O $ O $ $ & & & & & & & & & 6 L b.&X8X8X8X8X8X8X8X8X8X8X8X8X8X8X8X8X8X8X8X8X8X8X",
"8X8X8X8X8X8X8X8X8X8X8X8X8X8X8X8X8X8X8X8X$X0.k $ & 8 w y z V D D L H H H H I ~ ;.K.&X8X8X8X8X8X8X8X8X8X8X8X8X8X8X8X8X8X8X8X8X8X8X",
"8X8X8X8X8X8X8X8X8X8X8X8X8X8X8X8X8X8X8X8X$X6.a $ , L &.1.u.j.M.C.C.C.C.C.C.S.G.E.$X4X8X8X8X8X8X8X8X8X8X8X8X8X8X8X8X8X8X8X8X8X8X8X",
"8X8X8X8X8X8X8X8X8X8X8X8X8X8X8X8X8X8X8X8XoX1.a $ 1 ) G.oX&X<X<X<X<X<X<X<X<X<X4X4X8X8X8X8X8X8X8X8X8X8X8X8X8X8X8X8X8X8X8X8X8X8X8X8X",
"8X8X8X8X8X8X8X8X8X8X8X8X8X8X8X8X8X8X8X8XoX<.w $ 6 } E.4X8X8X8X8X8X8X8X8X8X8X8X8X8X8X8X8X8X8X8X8X8X8X8X8X8X8X8X8X8X8X8X8X8X8X8X8X",
"8X8X8X8X8X8X8X8X8X8X8X8X8X8X8X8X8X8X8X8X}.;.w O 6 +.).8X8X8X8X8X8X8X8X8X8X8X8X8X8X8X8X8X8X8X8X8X8X8X8X8X8X8X8X8X8X8X8X8X8X8X8X8X",
"8X8X8X8X8X8X8X8X8X8X8X8X8X8X8X8X8X8X8X4X^.$.8 O 8 %._.8X8X8X8X8X8X8X8X8X8X8X8X8X8X8X8X8X8X8X8X8X8X8X8X8X8X8X8X8X8X8X8X8X8X8X8X8X",
"8X8X8X8X8X8X8X8X8X8X8X8X8X8X8X8X8X8X8X<XJ.` 4 $ w :.}.8X8X8X8X8X8X8X8X8X8X8X8X8X8X8X8X8X8X8X8X8X8X8X8X8X8X8X8X8X8X8X8X8X8X8X8X8X",
"8X8X8X8X8X8X8X8X8X8X8X8X8X8X8X8X8X8X8X;Xb.T 1 & k 1.oX8X8X8X8X8X8X8X8X8X8X8X8X8X8X8X8X8X8X8X8X8X8X8X8X8X8X8X8X8X8X8X8X8X8X8X8X8X",
"8X8X8X8X8X8X8X8X8X8X8X8X8X8X8X8X8X8X8X&Xu.M , , M r.{.<X4X4X8X8X8X8X8X8X8X8X8X8X8X8X8X8X8X8X8X8X8X8X8X8X8X8X8X8X8X8X8X8X8X8X8X8X",
"8X8X8X8X8X8X8X8X8X8X8X8X8X8X8X8X8X8X8X$X6.k $ , D ;.u.j.S.R.}.4X8X8X8X8X8X8X8X8X8X8X8X8X8X8X8X8X8X8X8X8X8X8X8X8X8X8X8X8X8X8X8X8X",
"8X8X8X8X8X8X8X8X8X8X8X8X8X8X8X8X8X8X8X}.;.w O , k M k k V W &.P.<X8X8X8X8X8X8X8X8X8X8X8X8X8X8X8X8X8X8X8X8X8X8X8X8X8X8X8X8X8X8X8X",
"8X8X8X8X8X8X8X8X8X8X8X8X8X8X8X8X8X8X<XK.` , o O & & O o O & 6 [ E.4X8X8X8X8X8X8X8X8X8X8X8X8X8X8X8X8X8X8X8X8X8X8X8X8X8X8X8X8X8X8X",
"8X8X8X8X8X8X8X8X8X8X8X8X8X8X8X8X8X4X_.1.z O o o o O O o o $ , D j.$X8X8X8X8X8X8X8X8X8X8X8X8X8X8X8X8X8X8X8X8X8X8X8X8X8X8X8X8X8X8X",
"8X8X8X8X8X8X8X8X8X8X8X8X8X8X8X8X8X;XS.! , o o o & w k y w c I  .M.$X8X8X8X8X8X8X8X8X8X8X8X8X8X8X8X8X8X8X8X8X8X8X8X8X8X8X8X8X8X8X",
"8X8X8X8X8X8X8X8X8X8X8X8X8X8X8X8X8X;Xf.c O o o $ c $.r.u.r.p.n.P.[.<X8X8X8X8X8X8X8X8X8X8X8X8X8X8X8X8X8X8X8X8X8X8X8X8X8X8X8X8X8X8X",
"8X8X8X8X8X8X8X8X8X8X8X8X8X8X8X8X8X4XC.c o o o 6 o.K.oX;X<X;X<X4X4X8X8X8X8X8X8X8X8X8X8X8X8X8X8X8X8X8X8X8X8X8X8X8X8X8X8X8X8X8X8X8X",
"8X8X8X8X8X8X8X8X8X8X8X8X8X8X8X8X8X8X).` & o O k 8.$X8X8X8X8X8X8X8X8X8X8X8X8X8X8X8X8X8X8X8X8X8X8X8X8X8X8X8X8X8X8X8X8X8X8X8X8X8X8X",
"8X8X8X8X8X8X8X8X8X8X8X8X8X8X8X8X8X8X;X0.a $ & M j.<X8X8X8X8X8X8X8X8X8X8X8X8X8X8X8X8X8X8X8X8X8X8X8X8X8X8X8X8X8X8X8X8X8X8X8X8X8X8X",
"8X8X8X8X8X8X8X8X8X8X8X8X8X8X8X8X8X8X<Xj.V & & D j.<X8X8X8X8X8X8X8X8X8X8X8X8X8X8X8X8X8X8X8X8X8X8X8X8X8X8X8X8X8X8X8X8X8X8X8X8X8X8X",
"8X8X8X8X8X8X8X8X8X8X8X8X8X8X8X8X8X8X<Xb.D & & D j.<X8X8X8X8X8X8X8X8X8X8X8X8X8X8X8X8X8X8X8X8X8X8X8X8X8X8X8X8X8X8X8X8X8X8X8X8X8X8X",
"8X8X8X8X8X8X8X8X8X8X8X8X8X8X8X8X8X8X<Xb.D & , D j.<X8X8X8X8X8X8X8X4X<X;X$X;X4X8X8X8X8X8X8X8X8X8X8X8X8X8X8X8X8X8X8X8X8X8X8X8X8X8X",
"8X8X8X8X8X8X8X8X8X8X8X8X8X8X8X8X8X8X<Xb.D & & D b.<X8X8X8X4X<X&X[.R.n.p.0.p.R.&X8X8X8X8X8X8X8X8X8X8X8X8X8X8X8X8X8X8X8X8X8X8X8X8X",
"8X8X8X8X8X8X8X8X8X8X8X8X8X8X8X8X8X8X<Xb.D & & D b.<X4X&X}.E.C.p.,.} I z y y I b.&X8X8X8X8X8X8X8X8X8X8X8X8X8X8X8X8X8X8X8X8X8X8X8X",
"8X8X8X8X8X8X8X8X8X8X8X8X8X8X8X8X8X8X<Xb.D & & D d.[.!.C.6.+.W n y 6 , $ o o O W R.8X8X8X8X8X8X8X8X8X8X8X8X8X8X8X8X8X8X8X8X8X8X8X",
"8X8X8X8X8X8X8X8X8X8X8X8X8X8X8X8X8X8X<Xj.D & & M :.r.&.! z 8 1 & $ o $ , 1 1 w ! C.<X8X8X8X8X8X8X8X8X8X8X8X8X8X8X8X8X8X8X8X8X8X8X",
"8X8X8X8X8X8X8X8X8X8X8X8X8X8X8X8X8X8X<Xb.V & $ y I V y 6 & O $ & 1 8 a V ~ o.:.p.).<X8X8X8X8X8X8X8X8X8X8X8X8X8X8X8X8X8X8X8X8X8X8X",
"8X8X8X8X8X8X8X8X8X8X8X8X8X8X8X8X8X8X4XG.L $ o & 1 , $ $ , 6 w M ! $.1.d.G.!.[.oX<X8X8X8X8X8X8X8X8X8X8X8X8X8X8X8X8X8X8X8X8X8X8X8X",
"8X8X8X8X8X8X8X8X8X8X8X8X8X8X8X8X8X8X8X[.$., o o o & 1 w n ( ;.u.S.E.}.&X<X4X8X8X8X8X8X8X8X8X8X8X8X8X8X8X8X8X8X8X8X8X8X8X8X8X8X8X",
"8X8X8X8X8X8X8X8X8X8X8X8X8X8X8X8X8X8X8X4XP.` w 1 6 a I +.0.C.^.oX<X4X8X8X8X8X8X8X8X8X8X8X8X8X8X8X8X8X8X8X8X8X8X8X8X8X8X8X8X8X8X8X",
"8X8X8X8X8X8X8X8X8X8X8X8X8X8X8X8X8X8X8X8X<X^.r.&.&.6.j.P.}.&X4X8X8X8X8X8X8X8X8X8X8X8X8X8X8X8X8X8X8X8X8X8X8X8X8X8X8X8X8X8X8X8X8X8X",
"8X8X8X8X8X8X8X8X8X8X8X8X8X8X8X8X8X8X8X8X8X8X;X}.}.oX&X<X8X8X8X8X8X8X8X8X8X8X8X8X8X8X8X8X8X8X8X8X8X8X8X8X8X8X8X8X8X8X8X8X8X8X8X8X",
"8X8X8X8X8X8X8X8X8X8X8X8X8X8X8X8X8X8X8X8X8X8X8X8X8X8X8X8X8X8X8X8X8X8X8X8X8X8X8X8X8X8X8X8X8X8X8X8X8X8X8X8X8X8X8X8X8X8X8X8X8X8X8X8X",
"8X8X8X8X8X8X8X8X8X8X8X8X8X8X8X8X8X8X8X8X8X8X8X8X8X8X8X8X8X8X8X8X8X8X8X8X8X8X8X8X8X8X8X8X8X8X8X8X8X8X8X8X8X8X8X8X8X8X8X8X8X8X8X8X",
"8X8X8X8X8X8X8X8X8X8X8X8X8X8X8X8X8X8X8X8X8X8X8X8X8X8X8X8X8X8X8X8X8X8X8X8X8X8X8X8X8X8X8X8X8X8X8X8X8X8X8X8X8X8X8X8X8X8X8X8X8X8X8X8X",
"8X8X8X8X8X8X8X8X8X8X8X8X8X8X8X8X8X8X8X8X8X8X8X8X8X8X8X8X8X8X8X8X8X8X8X8X8X8X8X8X8X8X8X8X8X8X8X8X8X8X8X8X8X8X8X8X8X8X8X8X8X8X8X8X",
"8X8X8X8X8X8X8X8X8X8X8X8X8X8X8X8X8X8X8X8X8X8X8X8X8X8X8X8X8X8X8X8X8X8X8X8X8X8X8X8X8X8X8X8X8X8X8X8X8X8X8X8X8X8X8X8X8X8X8X8X8X8X8X8X",
"8X8X8X8X8X8X8X8X8X8X8X8X8X8X8X8X8X8X8X8X8X8X8X8X8X8X8X8X8X8X8X8X8X8X8X8X8X8X8X8X8X8X8X8X8X8X8X8X8X8X8X8X8X8X8X8X8X8X8X8X8X8X8X8X",
"8X8X8X8X8X8X8X8X8X8X8X8X8X8X8X8X8X8X8X8X8X8X8X8X8X8X8X8X8X8X8X8X8X8X8X8X8X8X8X8X8X8X8X8X8X8X8X8X8X8X8X8X8X8X8X8X8X8X8X8X8X8X8X8X",
"8X8X8X8X8X8X8X8X8X8X8X8X8X8X8X8X8X8X8X8X8X8X8X8X8X8X8X8X8X8X8X8X8X8X8X8X8X8X8X8X8X8X8X8X8X8X8X8X8X8X8X8X8X8X8X8X8X8X8X8X8X8X8X8X",
"8X8X8X8X8X8X8X8X8X8X8X8X8X8X8X8X8X8X8X8X8X8X8X8X8X8X8X8X8X8X8X8X8X8X8X8X8X8X8X8X8X8X8X8X8X8X8X8X8X8X8X8X8X8X8X8X8X8X8X8X8X8X8X8X",
"8X8X8X8X8X8X8X8X8X8X8X8X8X8X8X8X8X8X8X8X8X8X8X8X8X8X8X8X8X8X8X8X8X8X8X8X8X8X8X8X8X8X8X8X8X8X8X8X8X8X8X8X8X8X8X8X8X8X8X8X8X8X8X8X",
"8X8X8X8X8X8X8X8X8X8X8X8X8X8X8X8X8X8X8X8X8X8X8X8X8X8X8X8X8X8X8X8X8X8X8X8X8X8X8X8X8X8X8X8X8X8X8X8X8X8X8X8X8X8X8X8X8X8X8X8X8X8X8X8X",
"8X8X8X8X8X8X8X8X8X8X8X8X8X8X8X8X8X8X8X8X8X8X8X8X8X8X8X8X8X8X8X8X8X8X8X8X8X8X8X8X8X8X8X8X8X8X8X8X8X8X8X8X8X8X8X8X8X8X8X8X8X8X8X8X",
"8X8X8X8X8X8X8X8X8X8X8X8X8X8X8X8X8X8X8X8X8X8X8X8X8X8X8X8X8X8X8X8X8X8X8X8X8X8X8X8X8X8X8X8X8X8X8X8X8X8X8X8X8X8X8X8X8X8X8X8X8X8X8X8X",
"8X8X8X8X8X8X8X8X8X8X8X8X8X8X8X8X8X8X8X8X8X8X8X8X8X8X8X8X8X8X8X8X8X8X8X8X8X8X8X8X8X8X8X8X8X8X8X8X8X8X8X8X8X8X8X8X8X8X8X8X8X8X8X8X",
"8X8X8X8X8X8X8X8X8X8X8X8X8X8X8X8X8X8X8X8X8X8X8X8X8X8X8X8X8X8X8X8X8X8X8X8X8X8X8X8X8X8X8X8X8X8X8X8X8X8X8X8X8X8X8X8X8X8X8X8X8X8X8X8X",
"8X8X8X8X8X8X8X8X8X8X8X8X8X8X8X8X8X8X8X8X8X8X8X8X8X8X8X8X8X8X8X8X8X8X8X8X8X8X8X8X8X8X8X8X8X8X8X8X8X8X8X8X8X8X8X8X8X8X8X8X8X8X8X8X",
"8X8X8X8X8X8X8X8X8X8X8X8X8X8X8X8X8X8X8X8X8X8X8X8X8X8X8X8X8X8X8X8X8X8X8X8X8X8X8X8X8X8X8X8X8X8X8X8X8X8X8X8X8X8X8X8X8X8X8X8X8X8X8X8X"
};
