/* XPM */
static char *_8839a362241487d9099c5b072d02efaC2t7bnINg0Jn3GUd[] = {
/* columns rows colors chars-per-pixel */
"64 64 227 2 ",
"   c #FF1000",
".  c #FF1101",
"X  c #FF1102",
"o  c #FF1202",
"O  c #FF1203",
"+  c #FF1303",
"@  c #FF1304",
"#  c #FF1404",
"$  c #FF1405",
"%  c #FF1505",
"&  c #FF1506",
"*  c #FF1606",
"=  c #FF1607",
"-  c #FF1707",
";  c #FF1708",
":  c #FF1808",
">  c #FF1809",
",  c #FF1909",
"<  c #FF190A",
"1  c #FF1A0A",
"2  c #FF1A0B",
"3  c #FF1B0B",
"4  c #FF1B0C",
"5  c #FF1C0C",
"6  c #FF1C0D",
"7  c #FF1D0D",
"8  c #FF1D0E",
"9  c #FF1E0E",
"0  c #FF1E0F",
"q  c #FF1F10",
"w  c #FF2011",
"e  c #FF2012",
"r  c #FF2112",
"t  c #FF2113",
"y  c #FF2213",
"u  c #FF2315",
"i  c #FF2415",
"p  c #FF2416",
"a  c #FF2516",
"s  c #FF2517",
"d  c #FF2617",
"f  c #FF2618",
"g  c #FF2718",
"h  c #FF2719",
"j  c #FF281A",
"k  c #FF2A1C",
"l  c #FF2B1C",
"z  c #FF2D1E",
"x  c #FF2D1F",
"c  c #FF2E20",
"v  c #FF3022",
"b  c #FF3123",
"n  c #FF3224",
"m  c #FF3326",
"M  c #FF3426",
"N  c #FF3427",
"B  c #FF3527",
"V  c #FF3A2D",
"C  c #FF3B2E",
"Z  c #FF3D30",
"A  c #FF3F32",
"S  c #FF4033",
"D  c #FF4034",
"F  c #FF4134",
"G  c #FF4235",
"H  c #FF4236",
"J  c #FF4336",
"K  c #FF4337",
"L  c #FF4437",
"P  c #FF4438",
"I  c #FF4639",
"U  c #FF463A",
"Y  c #FF473A",
"T  c #FF483C",
"R  c #FF493C",
"E  c #FF493D",
"W  c #FF4A3D",
"Q  c #FF4A3E",
"!  c #FF4B3E",
"~  c #FF4B3F",
"^  c #FF4D41",
"/  c #FF4F43",
"(  c #FF4F44",
")  c #FF5045",
"_  c #FF5145",
"`  c #FF5146",
"'  c #FF5247",
"]  c #FF5347",
"[  c #FF5348",
"{  c #FF5A4F",
"}  c #FF5B50",
"|  c #FF5E53",
" . c #FF6056",
".. c #FF6156",
"X. c #FF6157",
"o. c #FF6257",
"O. c #FF6258",
"+. c #FF6358",
"@. c #FF6359",
"#. c #FF6459",
"$. c #FF645A",
"%. c #FF655B",
"&. c #FF665B",
"*. c #FF665C",
"=. c #FF675D",
"-. c #FF6A60",
";. c #FF6C62",
":. c #FF6E64",
">. c #FF7066",
",. c #FF7167",
"<. c #FF7168",
"1. c #FF736A",
"2. c #FF766D",
"3. c #FF776E",
"4. c #FF7970",
"5. c #FF7A71",
"6. c #FF7B72",
"7. c #FF7C73",
"8. c #FF7E75",
"9. c #FF8077",
"0. c #FF8078",
"q. c #FF8179",
"w. c #FF837A",
"e. c #FF837B",
"r. c #FF857D",
"t. c #FF867E",
"y. c #FF877F",
"u. c #FF8B83",
"i. c #FF8C85",
"p. c #FF8E86",
"a. c #FF8E87",
"s. c #FF9089",
"d. c #FF928B",
"f. c #FF938C",
"g. c #FF948D",
"h. c #FF968F",
"j. c #FF9790",
"k. c #FF9891",
"l. c #FF9992",
"z. c #FF9993",
"x. c #FF9A93",
"c. c #FF9B94",
"v. c #FF9C95",
"b. c #FF9D96",
"n. c #FF9E97",
"m. c #FFA09A",
"M. c #FFA19A",
"N. c #FFA19B",
"B. c #FFA29B",
"V. c #FFA29C",
"C. c #FFA59F",
"Z. c #FFA5A0",
"A. c #FFA6A0",
"S. c #FFA7A1",
"D. c #FFA8A2",
"F. c #FFA9A4",
"G. c #FFABA6",
"H. c #FFAEA8",
"J. c #FFAEA9",
"K. c #FFB0AB",
"L. c #FFB1AC",
"P. c #FFB2AC",
"I. c #FFB4AF",
"U. c #FFB6B1",
"Y. c #FFB8B3",
"T. c #FFBAB5",
"R. c #FFBBB6",
"E. c #FFBDB9",
"W. c #FFBEBA",
"Q. c #FFC1BD",
"!. c #FFC3BF",
"~. c #FFCAC6",
"^. c #FFCAC7",
"/. c #FFCBC7",
"(. c #FFCBC8",
"). c #FFCCC8",
"_. c #FFCDCA",
"`. c #FFCECA",
"'. c #FFCFCC",
"]. c #FFD0CD",
"[. c #FFD1CD",
"{. c #FFD2CF",
"}. c #FFD3D0",
"|. c #FFD4D1",
" X c #FFD6D3",
".X c #FFD9D6",
"XX c #FFD9D7",
"oX c #FFDAD7",
"OX c #FFDBD8",
"+X c #FFDBD9",
"@X c #FFDCDA",
"#X c #FFDDDB",
"$X c #FFDEDC",
"%X c #FFE0DE",
"&X c #FFE1DF",
"*X c #FFE1E0",
"=X c #FFE2E0",
"-X c #FFE4E2",
";X c #FFE6E4",
":X c #FFE7E5",
">X c #FFE8E6",
",X c #FFE8E7",
"<X c #FFE9E7",
"1X c #FFE9E8",
"2X c #FFEAE9",
"3X c #FFEBEA",
"4X c #FFEDEC",
"5X c #FFEEED",
"6X c #FFEFEE",
"7X c #FFF0EF",
"8X c #FFF1F0",
"9X c #FFF2F1",
"0X c #FFF3F2",
"qX c #FFF4F3",
"wX c #FFF5F4",
"eX c #FFF5F5",
"rX c #FFF6F6",
"tX c #FFF7F6",
"yX c #FFF7F7",
"uX c #FFF8F7",
"iX c #FFF8F8",
"pX c #FFF9F9",
"aX c #FFFBFB",
"sX c #FFFCFC",
"dX c #FFFDFD",
"fX c #FFFEFE",
"gX c white",
/* pixels */
"gXgXgXgXgXgXgXgXgXgXgXgXgXgXgXgXgXgXgXgXgXgXgXgXgXgXgXgXgXgXgXgXgXgXgXgXgXgXgXgXgXgXgXgXgXgXgXgXgXgXgXgXgXgXgXgXgXgXgXgXgXgXgXgX",
"gXgXgXgXgXgXgXgXgXgXgXgXgXgXgXgXgXgXgXgXgXgXgXgXgXgXgXgXgXgXgXgXgXgXgXgXgXgXgXgXgXgXgXgXgXgXgXgXgXgXgXgXgXgXgXgXgXgXgXgXgXgXgXgX",
"gXgXgXgXgXgXgXgXgXgXgXgXgXgXgXgXgXgXgXgXgXgXgXgXgXgXgXgXgXgXgXgXgXgXgXgXgXgXgXgXgXgXgXgXgXgXgXgXgXgXgXgXgXgXgXgXgXgXgXgXgXgXgXgX",
"gXgXgXgXgXgXgXgXgXgXgXgXgXgXgXgXgXgXgXgXgXgXgXgXgXgXgXgXgXgXgXgXgXgXgXgXgXgXgXgXgXgXgXgXgXgXgXgXgXgXgXgXgXgXgXgXgXgXgXgXgXgXgXgX",
"gXgXgXgXgXgXgXgXgXgXgXgXgXgXgXgXgXgXgXgXgXgXgXgXgXgXgXgXgXgXgXgXgXgXgXgXgXgXgXgXgXgXgXgXgXgXgXgXgXgXgXgXgXgXgXgXgXgXgXgXgXgXgXgX",
"gXgXgXgXgXgXgXgXgXgXgXgXgXgXgXgXgXgXgXgXgXgXgXgXgXgXgXgXgXgXgXgXgXgXgXgXgXgXgXgXgXgXgXgXgXgXgXgXgXgXgXgXgXgXgXgXgXgXgXgXgXgXgXgX",
"gXgXgXgXgXgXgXgXgXgXgXgXgXgXgXgXgXgXgXgXgXgXgXgXgXgXgXgXgXgXgXgXgXgXgXgXgXgXgXgXgXgXgXgXgXgXgXgXgXgXgXgXgXgXgXgXgXgXgXgXgXgXgXgX",
"gXgXgXgXgXgXgXgXgXgXgXgXgXgXgXgXgXgXgXgXgXgXgXgXgXgXgXgXgXgXgXgXgXgXgXgXgXgXgXgXgXgXgXgXgXgXgXgXgXgXgXgXgXgXgXgXgXgXgXgXgXgXgXgX",
"gXgXgXgXgXgXgXgXgXgXgXgXgXgXgXgXgXgXgXgXgXgXgXgXgXgXgXgXgXgXgXgXgXgXgXgXgXgXgXgXgXgXgXgXgXgXgXgXgXgXgXgXgXgXgXgXgXgXgXgXgXgXgXgX",
"gXgXgXgXgXgXgXgXgXgXgXgXgXgXgXgXgXgXgXgXgXgXgXgXgXgXgXgXgXgXgXgXgXgXgXgXgXgXgXgXgXgXgXgXgXgXgXgXgXgXgXgXgXgXgXgXgXgXgXgXgXgXgXgX",
"gXgXgXgXgXgXgXgXgXgXgXgXgXgXgXgXgXgXgXgXgXgXgXgXgXgXgXgXgXgXgXgXgXgXgXgXgXgXgXgXgXgXgXgXgXgXgXgXgXgXgXgXgXgXgXgXgXgXgXgXgXgXgXgX",
"gXgXgXgXgXgXgXgXgXgXgXgXgXgXgXgXgXgXgXgXgXgXgXgXgXgXgXgXgXgXgXgXgXgXgXgXgXgXgXgXgXgXgXgXgXgXgXgXgXgXgXgXgXgXgXgXgXgXgXgXgXgXgXgX",
"gXgXgXgXgXgXgXgXgXgXgXgXgXgXgXgXgXgXgXgXgXgXgXgXgXgXgXgXgXgXgXgXgXgXgXgXgXgXgXgXgXgXgXgXgXgXgXgXgXgXgXgXgXgXgXgXgXgXgXgXgXgXgXgX",
"gXgXgXgXgXgXgXgXgXgXgXgXgXgXgXgXgXgXgXgXgXgXgXgXgXgXgXgXgXgXgXgXgXgXgXgXgXgXgXgXgXgXgXgXgXgXgXgXgXgXgXgXgXgXgXgXgXgXgXgXgXgXgXgX",
"gXgXgXgXgXgXgXgXgXgXgXgXgXgXgXgXgXgXgXgXgXgXgXgXgXgXgXgXgXgXgXgXgXgXgXgXgXgXgXgXpXtXgXgXgXgXgXgXgXgXgXgXgXgXgXgXgXgXgXgXgXgXgXgX",
"gXgXgXgXgXgXgXgXgXgXgXgXgXgXgXgXgXgXgXgXgXgXgXgXgXgXgXgXgXgXgXgXgXgXgXgXgXgXgXpX~.z.W.tXgXgXgXgXgXgXgXgXgXgXgXgXgXgXgXgXgXgXgXgX",
"gXgXgXgXgXgXgXgXgXgXgXgXgXgXgX=X). X5XgXgXgXgXgXgXgXgXgXgXgXgXgXgXgXgXgXgXgXgXtXz.w l U.pXgXgXgXgXgXgXgXgXgXgXgXgXgXgXgXgXgXgXgX",
"gXgXgXgXgXgXgXgXgXgXgXgXgXgXtXB.F F <.oXgXgXgXgXgXgXgXgXgXgXgXgXgXgXgXgXgXgXgX0Xi.q * =.1XgXgXgXgXgXgXgXgXgXgXgXgXgXgXgXgXgXgXgX",
"gXgXgXgXgXgXgXgXgXgXgXgXgXgX5X,.2   * ..:XgXgXgXgXgXgXgXgXgXgXgXgXgXgXgXgXgXgX0Xq.2 * Q [.gXgXgXgXgXgXgXgXgXgXgXgXgXgXgXgXgXgXgX",
"gXgXgXgXgXgXgXgXgXgXgXgXgXgX5X]       w S.gXgXgXgXgXgXgXgXgXgXgXgXgXgXgXgXgXgX0X7.* * Q ~.gXgXgXgXgXgXgXgXgXgXgXgXgXgXgXgXgXgXgX",
"gXgXgXgXgXgXgXgXgXgXgXgXgXgXgXz.2       [ -XgXgXgXgXgXgXgXgXgXgXgXgXgXgXgXgXgX0X3.@ * Q ~.gXgXgXgXgXgXgXgXgXgXgXgXgXgXgXgXgXgXgX",
"gXgXgXgXgXgXgXgXgXgXgXgXgXgXgXY.z *     * y.tXgXgXgXgXgXgXgXgXgXgXgXgXgXgXgXgX0X9.; * Q ~.gXgXgXgXgXgXgXgXgXgXgXgXgXgXgXgXgXgXgX",
"gXgXgXgXgXgXgXgXgXgXgXgXgXgXgXQ.M 2 4 *   w H.gXgXgXgXgXgXgXgXgXgXgXgXgXgXgXgX0Xq.2 * Q ~.gXgXgXgXgXgXgXgXgXgXgXgXgXgXgXgXgXgXgX",
"gXgXgXgXgXgXgXgXgXgXgXgXgXgXgX~.V ; w V *   b ).gXgXgXgXgXgXgXgXgXgXgXgXgXgXgX0Xq.2 * Q ~.gXgXgXgXgXgXgXgXgXgXgXgXgXgXgXgXgXgXgX",
"gXgXgXgXgXgXgXgXgXgXgXgXgXgXgX}.P * w ..Q *   ] :XgXgXgXgXgXgXgXgXgXgXgXgXgXgX0Xq.2 * Q ~.gXgXgXgXgXgXgXgXgXgXgXgXgXgXgXgXgXgXgX",
"gXgXgXgXgXgXgXgXgXgXgXgXgXgXgX+X] * w ,.V.M   * 3.tXgXgXgXgXgXgXgXgXgXgXgXgXgX0Xq.2 * Q ~.gXgXgXgXgXgXgXgXgXgXgXgXgXgXgXgXgXgXgX",
"gXgXgXgXgXgXgXgXgXgXgXgXgXgXgX+X} * 9 :.}.s.w   2 B.gXgXgXgXgXgXgXgXgXgXgXgXgX0Xq.2 * Q (.gXgXgXgXgXgXgXgXgXgXgXgXgXgXgXgXgXgXgX",
"gXgXgXgXgXgXgXgXgXgXgXgXgXgXgX+X| * 4 ;.#X=X%.*   w K.gXgXgXgXgXgXgXgXgXgXgXgX0Xy.2 * Q ~.gXgXgXgXgXgXgXgXgXgXgXgXgXgXgXgXgXgXgX",
"gXgXgXgXgXgXgXgXgXgXgXgXgXgXgX#X..* 2 =.#XgX'.Q *   n '.gXgXgXgXgXgXgXgXgXgXgX0Xu.4 * P (.gXgXgXgXgXgXgXgXgXgXgXgXgXgXgXgXgXgXgX",
"gXgXgXgXgXgXgXgXgXgXgXgXgXgXgX#X..; 2 %.#XgXgXW.V * * Q &XgXgXgXgXgXgXgXgXgXgX0Xi.9 * F ~.gXgXgXgXgXgXgXgXgXgXgXgXgXgXgXgXgXgXgX",
"gXgXgXgXgXgXgXgXgXgXgXgXgXgXgX#X%.; 2 %.$XgXgXuXD.z     +.5XgXgXgXgXgXgXgXgXgX0Xi.9 @ L ~.gXgXgXgXgXgXgXgXgXgXgXgXgXgXgXgXgXgXgX",
"gXgXgXgXgXgXgXgXgXgXgXgXgXgXgX#X+.2 2 +.#XgXgXgX0Xv.d   * -.1XgXgXgXgXgXgXgXgX0Xs.9 * L ~.gXgXgXgXgXgXgXgXgXgXgXgXgXgXgXgXgXgXgX",
"gXgXgXgXgXgXgXgXgXgXgXgXgXgXgX#X%.2 2 +.#XgXgXgXgX0Xf.d   * <.1XgXgXgXgXgXgXgX0Xs.w @ F (.gXgXgXgXgXgXgXgXgXgXgXgXgXgXgXgXgXgXgX",
"gXgXgXgXgXgXgXgXgXgXgXgXgXgXgX#X%.2 2 +.#XgXgXgXgXgX7Xj.d   2 6.5XgXgXgXgXgXgX0Xj.w   F ~.gXgXgXgXgXgXgXgXgXgXgXgXgXgXgXgXgXgXgX",
"gXgXgXgXgXgXgXgXgXgXgXgXgXgXgXoX..2 2 +.#XgXgXgXgXgXgX0Xv.d   2 q.5XgXgXgXgXgX7Xz.d   S ~.gXgXgXgXgXgXgXgXgXgXgXgXgXgXgXgXgXgXgX",
"gXgXgXgXgXgXgXgXgXgXgXgXgXgXgX X{ 2 2 =.#XgXgXgXgXgXgXgXtXv.w   2 i.0XgXgXgXgX5Xz.d   Z ~.gXgXgXgXgXgXgXgXgXgXgXgXgXgXgXgXgXgXgX",
"gXgXgXgXgXgXgXgXgXgXgXgXgXgXgX(./ * 9 ,.&XgXgXgXgXgXgXgXgXqXh.9   q z.tXgXgXgX1Xs.h   Z ~.gXgXgXgXgXgXgXgXgXgXgXgXgXgXgXgXgXgXgX",
"gXgXgXgXgXgXgXgXgXgXgXgXgXgXgXQ.F * q q.:XgXgXgXgXgXgXgXgXgX0Xy.2   d B.tXgXgX&X8.d @ P ).gXgXgXgXgXgXgXgXgXgXgXgXgXgXgXgXgXgXgX",
"gXgXgXgXgXgXgXgXgXgXgXgXgXgXuXT.V   w j.0XgXgXgXgXgXgXgXgXgXgX1X6.*   j G.pXgX}.%.q * ] }.gXgXgXgXgXgXgXgXgXgXgXgXgXgXgXgXgXgXgX",
"gXgXgXgXgXgXgXgXgXgXgXgXgXgX0XH.n   d S.pXgXgXgXgXgXgXgXgXgXgXgX1X-.*   M I.0XQ.] 4 ; %.#XgXgXgXgXgXgXgXgXgXgXgXgXgXgXgXgXgXgXgX",
"gXgXgXgXgXgXgXgXgXgXgXgXgXgX0XS.n   d G.gXgXgXgXgXgXgXgXgXgXgXgXgX#X(     M h.v.F ; 2 6.>XgXgXgXgXgXgXgXgXgXgXgXgXgXgXgXgXgXgXgX",
"gXgXgXgXgXgXgXgXgXgXgXgXgXgX7Xc.c   h H.gXgXgXgXgXgXgXgXgXgXgXgXgXgX).F     w P b 2 9 s.tXgXgXgXgXgXgXgXgXgXgXgXgXgXgXgXgXgXgXgX",
"gXgXgXgXgXgXgXgXgXgXgXgXgXgX7Xs.w   d K.gXgXgXgXgXgXgXgXgXgXgXgXgXgXgX[./ @   * 9 q u B.gXgXgXgXgXgXgXgXgXgXgXgXgXgXgXgXgXgXgXgX",
"gXgXgXgXgXgXgXgXgXgXgXgXgXgXpXY.h   9 C.gXgXgXgXgXgXgXgXgXgXgXgXgXgXgXgX=X,.9   * u l L.gXgXgXgXgXgXgXgXgXgXgXgXgXgXgXgXgXgXgXgX",
"gXgXgXgXgXgXgXgXgXgXgXgXgXgXgX7X6.* 2 h.gXgXgXgXgXgXgXgXgXgXgXgXgXgXgXgXgX0XL./ 4 9 w H.gXgXgXgXgXgXgXgXgXgXgXgXgXgXgXgXgXgXgXgX",
"gXgXgXgXgXgXgXgXgXgXgXgXgXgXgXgXoXP Z L.gXgXgXgXgXgXgXgXgXgXgXgXgXgXgXgXgXgXgX1XY...F T.gXgXgXgXgXgXgXgXgXgXgXgXgXgXgXgXgXgXgXgX",
"gXgXgXgXgXgXgXgXgXgXgXgXgXgXgXgXgX>X[.>XgXgXgXgXgXgXgXgXgXgXgXgXgXgXgXgXgXgXgXgXgX0X+X>XgXgXgXgXgXgXgXgXgXgXgXgXgXgXgXgXgXgXgXgX",
"gXgXgXgXgXgXgXgXgXgXgXgXgXgXgXgXgXgXgXgXgXgXgXgXgXgXgXgXgXgXgXgXgXgXgXgXgXgXgXgXgXgXgXgXgXgXgXgXgXgXgXgXgXgXgXgXgXgXgXgXgXgXgXgX",
"gXgXgXgXgXgXgXgXgXgXgXgXgXgXgXgXgXgXgXgXgXgXgXgXgXgXgXgXgXgXgXgXgXgXgXgXgXgXgXgXgXgXgXgXgXgXgXgXgXgXgXgXgXgXgXgXgXgXgXgXgXgXgXgX",
"gXgXgXgXgXgXgXgXgXgXgXgXgXgXgXgXgXgXgXgXgXgXgXgXgXgXgXgXgXgXgXgXgXgXgXgXgXgXgXgXgXgXgXgXgXgXgXgXgXgXgXgXgXgXgXgXgXgXgXgXgXgXgXgX",
"gXgXgXgXgXgXgXgXgXgXgXgXgXgXgXgXgXgXgXgXgXgXgXgXgXgXgXgXgXgXgXgXgXgXgXgXgXgXgXgXgXgXgXgXgXgXgXgXgXgXgXgXgXgXgXgXgXgXgXgXgXgXgXgX",
"gXgXgXgXgXgXgXgXgXgXgXgXgXgXgXgXgXgXgXgXgXgXgXgXgXgXgXgXgXgXgXgXgXgXgXgXgXgXgXgXgXgXgXgXgXgXgXgXgXgXgXgXgXgXgXgXgXgXgXgXgXgXgXgX",
"gXgXgXgXgXgXgXgXgXgXgXgXgXgXgXgXgXgXgXgXgXgXgXgXgXgXgXgXgXgXgXgXgXgXgXgXgXgXgXgXgXgXgXgXgXgXgXgXgXgXgXgXgXgXgXgXgXgXgXgXgXgXgXgX",
"gXgXgXgXgXgXgXgXgXgXgXgXgXgXgXgXgXgXgXgXgXgXgXgXgXgXgXgXgXgXgXgXgXgXgXgXgXgXgXgXgXgXgXgXgXgXgXgXgXgXgXgXgXgXgXgXgXgXgXgXgXgXgXgX",
"gXgXgXgXgXgXgXgXgXgXgXgXgXgXgXgXgXgXgXgXgXgXgXgXgXgXgXgXgXgXgXgXgXgXgXgXgXgXgXgXgXgXgXgXgXgXgXgXgXgXgXgXgXgXgXgXgXgXgXgXgXgXgXgX",
"gXgXgXgXgXgXgXgXgXgXgXgXgXgXgXgXgXgXgXgXgXgXgXgXgXgXgXgXgXgXgXgXgXgXgXgXgXgXgXgXgXgXgXgXgXgXgXgXgXgXgXgXgXgXgXgXgXgXgXgXgXgXgXgX",
"gXgXgXgXgXgXgXgXgXgXgXgXgXgXgXgXgXgXgXgXgXgXgXgXgXgXgXgXgXgXgXgXgXgXgXgXgXgXgXgXgXgXgXgXgXgXgXgXgXgXgXgXgXgXgXgXgXgXgXgXgXgXgXgX",
"gXgXgXgXgXgXgXgXgXgXgXgXgXgXgXgXgXgXgXgXgXgXgXgXgXgXgXgXgXgXgXgXgXgXgXgXgXgXgXgXgXgXgXgXgXgXgXgXgXgXgXgXgXgXgXgXgXgXgXgXgXgXgXgX",
"gXgXgXgXgXgXgXgXgXgXgXgXgXgXgXgXgXgXgXgXgXgXgXgXgXgXgXgXgXgXgXgXgXgXgXgXgXgXgXgXgXgXgXgXgXgXgXgXgXgXgXgXgXgXgXgXgXgXgXgXgXgXgXgX",
"gXgXgXgXgXgXgXgXgXgXgXgXgXgXgXgXgXgXgXgXgXgXgXgXgXgXgXgXgXgXgXgXgXgXgXgXgXgXgXgXgXgXgXgXgXgXgXgXgXgXgXgXgXgXgXgXgXgXgXgXgXgXgXgX",
"gXgXgXgXgXgXgXgXgXgXgXgXgXgXgXgXgXgXgXgXgXgXgXgXgXgXgXgXgXgXgXgXgXgXgXgXgXgXgXgXgXgXgXgXgXgXgXgXgXgXgXgXgXgXgXgXgXgXgXgXgXgXgXgX",
"gXgXgXgXgXgXgXgXgXgXgXgXgXgXgXgXgXgXgXgXgXgXgXgXgXgXgXgXgXgXgXgXgXgXgXgXgXgXgXgXgXgXgXgXgXgXgXgXgXgXgXgXgXgXgXgXgXgXgXgXgXgXgXgX",
"gXgXgXgXgXgXgXgXgXgXgXgXgXgXgXgXgXgXgXgXgXgXgXgXgXgXgXgXgXgXgXgXgXgXgXgXgXgXgXgXgXgXgXgXgXgXgXgXgXgXgXgXgXgXgXgXgXgXgXgXgXgXgXgX",
"gXgXgXgXgXgXgXgXgXgXgXgXgXgXgXgXgXgXgXgXgXgXgXgXgXgXgXgXgXgXgXgXgXgXgXgXgXgXgXgXgXgXgXgXgXgXgXgXgXgXgXgXgXgXgXgXgXgXgXgXgXgXgXgX"
};
