/* XPM */
static char *_4611f5a73f7499dfb4241378ead69e4PI6ouCP0Y2g1jOpn[] = {
/* columns rows colors chars-per-pixel */
"64 64 205 2 ",
"   c #5C51E8",
".  c #5D52E8",
"X  c #5E53E8",
"o  c #5F54E9",
"O  c #6055E9",
"+  c #6156E9",
"@  c #6157E9",
"#  c #6258E9",
"$  c #6358E9",
"%  c #6359E9",
"&  c #645AE9",
"*  c #655AE9",
"=  c #655BE9",
"-  c #665CEA",
";  c #675CEA",
":  c #675DEA",
">  c #685EEA",
",  c #695EEA",
"<  c #695FEA",
"1  c #6A60EA",
"2  c #6B61EA",
"3  c #6C63EA",
"4  c #6D63EB",
"5  c #6E64EB",
"6  c #6E65EB",
"7  c #6F65EB",
"8  c #7066EB",
"9  c #7067EB",
"0  c #7167EB",
"q  c #7268EB",
"w  c #7269EB",
"e  c #7369EB",
"r  c #736AEB",
"t  c #746BEC",
"y  c #756BEC",
"u  c #756CEC",
"i  c #766DEC",
"p  c #776EEC",
"a  c #786FEC",
"s  c #7970EC",
"d  c #7B72EC",
"f  c #7B72ED",
"g  c #7C73ED",
"h  c #7D74ED",
"j  c #7E75ED",
"k  c #7E76ED",
"l  c #7F76ED",
"z  c #8077ED",
"x  c #8078ED",
"c  c #8279ED",
"v  c #827AEE",
"b  c #837BEE",
"n  c #847BEE",
"m  c #847CEE",
"M  c #857DEE",
"N  c #877FEE",
"B  c #8981EE",
"V  c #8A82EF",
"C  c #8B83EF",
"Z  c #8C84EF",
"A  c #8D86EF",
"S  c #8E86EF",
"D  c #8E87EF",
"F  c #9088EF",
"G  c #9089EF",
"H  c #918AF0",
"J  c #928BF0",
"K  c #938CF0",
"L  c #948DF0",
"P  c #958EF0",
"I  c #968EF0",
"U  c #968FF0",
"Y  c #9790F0",
"T  c #9791F0",
"R  c #9891F1",
"E  c #9992F1",
"W  c #9993F1",
"Q  c #9A93F1",
"!  c #9B95F1",
"~  c #9D97F1",
"^  c #9E97F1",
"/  c #9F98F1",
"(  c #9F99F2",
")  c #A099F2",
"_  c #A09AF2",
"`  c #A19BF2",
"'  c #A29BF2",
"]  c #A39DF2",
"[  c #A49EF2",
"{  c #A59FF2",
"}  c #A6A0F2",
"|  c #A7A1F3",
" . c #A8A2F3",
".. c #A9A3F3",
"X. c #A9A4F3",
"o. c #AAA4F3",
"O. c #ABA6F3",
"+. c #ADA7F3",
"@. c #ADA8F4",
"#. c #AEA9F4",
"$. c #AFA9F4",
"%. c #AFAAF4",
"&. c #B1ABF4",
"*. c #B1ACF4",
"=. c #B2ADF4",
"-. c #B3AEF4",
";. c #B4AFF4",
":. c #B4AFF5",
">. c #B5B0F5",
",. c #B6B1F5",
"<. c #B7B2F5",
"1. c #B8B3F5",
"2. c #B8B4F5",
"3. c #B9B4F5",
"4. c #BAB5F5",
"5. c #BAB6F5",
"6. c #BBB6F5",
"7. c #BBB7F6",
"8. c #BCB8F6",
"9. c #BDB8F6",
"0. c #BDB9F6",
"q. c #BFBAF6",
"w. c #C0BCF6",
"e. c #C1BCF6",
"r. c #C1BDF6",
"t. c #C2BEF6",
"y. c #C3BEF7",
"u. c #C3BFF7",
"i. c #C4C0F7",
"p. c #C4C1F7",
"a. c #C5C1F7",
"s. c #C6C2F7",
"d. c #C6C3F7",
"f. c #C8C4F7",
"g. c #C8C5F7",
"h. c #C9C5F7",
"j. c #CAC6F8",
"k. c #CAC7F8",
"l. c #CBC7F8",
"z. c #CCC8F8",
"x. c #CCC9F8",
"c. c #CDCAF8",
"v. c #CECBF8",
"b. c #CFCCF8",
"n. c #D0CDF8",
"m. c #D1CEF9",
"M. c #D2CFF9",
"N. c #D3D0F9",
"B. c #D4D1F9",
"V. c #D5D2F9",
"C. c #D6D3F9",
"Z. c #D6D4F9",
"A. c #D8D5F9",
"S. c #D8D6FA",
"D. c #D9D7FA",
"F. c #DAD7FA",
"G. c #DBD9FA",
"H. c #DCD9FA",
"J. c #DCDAFA",
"K. c #DDDBFA",
"L. c #DEDCFA",
"P. c #DFDDFA",
"I. c #DFDDFB",
"U. c #E0DEFB",
"Y. c #E1DFFB",
"T. c #E2E0FB",
"R. c #E3E1FB",
"E. c #E4E2FB",
"W. c #E5E3FB",
"Q. c #E5E4FB",
"!. c #E7E5FC",
"~. c #E7E6FC",
"^. c #E8E6FC",
"/. c #E8E7FC",
"(. c #E9E8FC",
"). c #EAE8FC",
"_. c #EAE9FC",
"`. c #EBEAFC",
"'. c #ECEAFC",
"]. c #ECEBFC",
"[. c #EDECFC",
"{. c #EEECFD",
"}. c #EEEDFD",
"|. c #EFEEFD",
" X c #F0EFFD",
".X c #F1F0FD",
"XX c #F1F1FD",
"oX c #F2F1FD",
"OX c #F3F2FD",
"+X c #F3F3FD",
"@X c #F4F3FD",
"#X c #F5F4FE",
"$X c #F5F5FE",
"%X c #F6F5FE",
"&X c #F7F6FE",
"*X c #F7F7FE",
"=X c #F8F7FE",
"-X c #F9F8FE",
";X c #F9F9FE",
":X c #FAFAFE",
">X c #FBFBFE",
",X c #FCFCFF",
"<X c #FDFDFF",
"1X c #FEFEFF",
"2X c white",
/* pixels */
"2X2X2X2X2X2X2X2X2X2X2X2X2X2X2X2X2X2X2X2X2X2X2X2X2X2X2X2X2X2X2X2X2X2X2X2X2X2X2X2X2X2X2X2X2X2X2X2X2X2X2X2X2X2X2X2X2X2X2X2X2X2X2X2X",
"2X2X2X2X2X2X2X2X2X2X2X2X2X2X2X2X2X2X2X2X2X2X2X2X2X2X2X2X2X2X2X2X2X2X2X2X2X2X2X2X2X2X2X2X2X2X2X2X2X2X2X2X2X2X2X2X2X2X2X2X2X2X2X2X",
"2X2X2X2X2X2X2X2X2X2X2X2X2X2X2X2X2X2X2X2X2X2X2X2X2X2X2X2X2X2X2X2X2X2X2X2X2X2X2X2X2X2X2X2X2X2X2X2X2X2X2X2X2X2X2X2X2X2X2X2X2X2X2X2X",
"2X2X2X2X2X2X2X2X2X2X2X2X2X2X2X2X2X2X2X2X2X2X2X2X2X2X2X2X2X2X2X2X2X2X2X2X2X2X2X2X2X2X2X2X2X2X2X2X2X2X2X2X2X2X2X2X2X2X2X2X2X2X2X2X",
"2X2X2X2X2X2X2X2X2X2X2X2X2X2X2X2X2X2X2X2X2X2X2X2X2X2X2X2X2X2X2X2X2X2X2X2X2X2X2X2X2X2X2X2X2X2X2X2X2X2X2X2X2X2X2X2X2X2X2X2X2X2X2X2X",
"2X2X2X2X2X2X2X2X2X2X2X2X2X2X2X2X2X2X2X2X2X2X2X2X2X2X2X2X2X2X2X2X2X2X2X2X2X2X2X2X2X2X2X2X2X2X2X2X2X2X2X2X2X2X2X2X2X2X2X2X2X2X2X2X",
"2X2X2X2X2X2X2X2X2X2X2X2X2X2X2X2X2X2X2X2X2X2X2X2X2X2X2X2X2X2X2X2X2X2X2X2X2X2X2X2X2X2X2X2X2X2X2X2X2X2X2X2X2X2X2X2X2X2X2X2X2X2X2X2X",
"2X2X2X2X2X2X2X2X2X2X2X2X2X2X2X2X2X2X2X2X2X2X2X2X2X2X2X2X2X2X2X2X2X2X2X2X2X2X2X2X2X2X2X2X2X2X2X2X2X2X2X2X2X2X2X2X2X2X2X2X2X2X2X2X",
"2X2X2X2X2X2X2X2X2X2X2X2X2X2X2X2X2X2X2X2X2X2X2X2X2X2X2X2X2X2X2X2X2X2X2X2X2X2X2X2X2X2X2X2X2X2X2X2X2X2X2X2X2X2X2X2X2X2X2X2X2X2X2X2X",
"2X2X2X2X2X2X2X2X2X2X2X2X2X2X2X2X2X2X2X2X2X2X2X2X2X2X2X2X2X2X2X2X2X2X2X2X2X2X2X2X2X2X2X2X2X2X2X2X2X2X2X2X2X2X2X2X2X2X2X2X2X2X2X2X",
"2X2X2X2X2X2X2X2X2X2X2X2X2X2X2X2X2X2X2X2X2X2X2X2X2X2X2X2X2X2X2X2X2X2X2X2X2X2X2X2X2X2X2X2X2X2X2X2X2X2X2X2X2X2X2X2X2X2X2X2X2X2X2X2X",
"2X2X2X2X2X2X2X2X2X2X2X2X2X2X2X2X2X2X2X2X2X2X2X2X2X2X2X2X2X2X2X2X2X2X2X2X2X2X2X2X2X2X2X2X2X2X2X2X2X2X2X2X2X2X2X2X2X2X2X2X2X2X2X2X",
"2X2X2X2X2X2X2X2X2X2X2X2X2X2X2X2X2X2X2X2X2X2X2X2X2X2X2X;X;X=X;X2X2X2X2X2X2X2X2X2X2X2X2X2X2X2X2X2X2X2X2X2X2X2X2X2X2X2X2X2X2X2X2X2X",
"2X2X2X2X2X2X2X2X2X2X2X2X2X2X2X2X2X2X2X2X2X2X2X2X;XOX(.S.l.p.l.J.OX2X2X2X2X2X2X2X2X2X2X2X2X2X2X2X2X2X2X2X2X2X2X2X2X2X2X2X2X2X2X2X",
"2X2X2X2X2X2X2X2X2X2X2X2X2X2X2X2X2X2X2X2X2X&X}.Y.n.r.%.T n i i M =.E.;X2X2X2X2X2X2X2X2X2X2X2X2X2X2X2X2X2X2X2X2X2X2X2X2X2X2X2X2X2X",
"2X2X2X2X2X2X2X2X2X2X2X2X2X2X2X2X2X2X2XOXY.v.4.} S f 8 < & + o + 5 [ C.OX2X2X2X2X2X2X2X2X2X2X2X2X2X2X2X2X2X2X2X2X2X2X2X2X2X2X2X2X",
"2X2X2X2X2X2X2X2X2X2X2X2X2X2X2X2X2X&X(.v.X.V i 3 - # o . + & - < 5 i M +.I.;X2X2X2X2X2X2X2X2X2X2X2X2X2X2X2X2X2X2X2X2X2X2X2X2X2X2X",
"2X2X2X2X2X2X2X2X2X2X2X2X2X2X2X2XOXJ.q.R t - + . o # < 3 i M T / K 5 . & M l.&X2X2X2X2X2X2X2X2X2X2X2X2X2X2X2X2X2X2X2X2X2X2X2X2X2X",
"2X2X2X2X2X2X2X2X2X2X2X2X2X2X2XOXZ.+.M 5 # . # < 8 l J X.q.v.J.R.C.R & . . t 4.OX2X2X2X2X2X2X2X2X2X2X2X2X2X2X2X2X2X2X2X2X2X2X2X2X",
"2X2X2X2X2X2X2X2X2X2X2X2X2X2X&XG.%.l < + + < f L %.r.N.E. X&X2X2X;XI.! < . . 2 %. X2X2X2X2X2X2X2X2X2X2X2X2X2X2X2X2X2X2X2X2X2X2X2X",
"2X2X2X2X2X2X2X2X2X2X2X2X2X;XE.,.M < + & 8 V %.n.Q.OX=X2X2X2X2X2X2X2X/.%.5 . . < %.OX2X2X2X2X2X2X2X2X2X2X2X2X2X2X2X2X2X2X2X2X2X2X",
"2X2X2X2X2X2X2X2X2X2X2X2X2X}.g.J 3 o # i ^ r.I.OX2X2X2X2X2X2X2X2X2X2X2XOXq.t . . 3 ,.OX2X2X2X2X2X2X2X2X2X2X2X2X2X2X2X2X2X2X2X2X2X",
"2X2X2X2X2X2X2X2X2X2X2X2X;XI. .t # + 8 R l.(.;X2X2X2X2X2X2X2X2X2X2X2X2X2X&Xr.t . . 8 r.=X2X2X2X2X2X2X2X2X2X2X2X2X2X2X2X2X2X2X2X2X",
"2X2X2X2X2X2X2X2X2X2X2X2XOXp.V < + 2 S r./.;X2X2X2X2X2X2X2X2X2X2X2X2X2X2X2X&X4.8 . . l Z.2X2X2X2X2X2X2X2X2X2X2X2X2X2X2X2X2X2X2X2X",
"2X2X2X2X2X2X2X2X2X2X2X2X(.=.i + & g :.R.;X2X2X2X2X2X2X2X2X2X2X2X2X2X2X2X2X2XOX%.< . # ^ ].2X2X2X2X2X2X2X2X2X2X2X2X2X2X2X2X2X2X2X",
"2X2X2X2X2X2X2X2X2X2X2X;XY.) 3 + 2 T n.@X2X2X2X2X2X2X2X2X2X2X2X2X2X2X2X2X2X2X2XQ.J o . 5 q.=X2X2X2X2X2X2X2X2X2X2X2X2X2X2X2X2X2X2X",
"2X2X2X2X2X2X2X2X2X2X2X;XN.J - + 8 +.~.;X2X2X2X2X2X2X2X2X2X2X2X2X2X2X2X2X2X2X2X;Xv.i . . l C.2X2X2X2X2X2X2X2X2X2X2X2X2X2X2X2X2X2X",
"2X2X2X2X2X2X2X2X2X2X2X&Xp.v # # f q.OX2X2X2X2X2X2X2X2X2X2X2X2X2X2X2X2X2X2X2X2X2XOX=.< . + L ~.2X2X2X2X2X2X2X2X2X2X2X2X2X2X2X2X2X",
"2X2X2X2X2X2X2X2X2X2X2XOX4.i + & M l.&X2X2X2X2X2X2X2X2X2X2X2X2X2X2X2X2X2X2X2X2X2X2XQ.L + . 3 r.=X2X2X2X2X2X2X2X2X2X2X2X2X2X2X2X2X",
"2X2X2X2X2X2X2X2X2X2X2X].%.5 o < L S.;X2X2X2X2X2X2X2X2X2X2X2X2X2X2X2X2X2X2X2X2X2X2X;Xr.w . + R /.2X2X2X2X2X2X2X2X2X2X2X2X2X2X2X2X",
"2X2X2X2X2X2X2X2X2X2X2X/. .2 . 2 } E.2X2X2X2X2X2X2X2X2X2X2X2X2X2X2X2X2X2X2X2X2X2X2X2XJ.V + o z C.;X2X2X2X2X2X2X2X2X2X2X2X2X2X2X2X",
"2X2X2X2X2X2X2X2X2X2X2XQ.) < . 5 &.}.2X2X2X2X2X2X2X2XOX/./.@X2X2X2X2X2X2X2X2X2X2X2X2XR.R & . t p.&X2X2X2X2X2X2X2X2X2X2X2X2X2X2X2X",
"2X2X2X2X2X2X2X2X2X2X2XE./ - o 5 ,.OX2X2X2X2X2X2X2X2X(.r. .r.(.2X2X2X2X2X2X2X2X2X2X2XE.^ - . 8 4.&X2X2X2X2X2X2X2X2X2X2X2X2X2X2X2X",
"2X2X2X2X2X2X2X2X2X2X2XE./ - . 8 4.&X2X2X2X2X2X2X2X2X}.q.l v p.OX2X2X2X2X2X2X2X2X2X2XE./ - . 8 4.@X2X2X2X2X2X2X2X2X2X2X2X2X2X2X2X",
"2X2X2X2X2X2X2X2X2X2X2XE.^ - o 8 ,.OX2X2X2X2X2X2X2X2X;XY.%.L 4.(.2X2X2X2X2X2X2X2X2X2XE./ - . 8 1.OX2X2X2X2X2X2X2X2X2X2X2X2X2X2X2X",
"2X2X2X2X2X2X2X2X2X2X2XE./ - . 8 4.OX2X2X2X2X2X2X2X2X2X;X/.S.J. X2X2X2X2X2X2X2X2X2X2XE./ - . 8 1.@X2X2X2X2X2X2X2X2X2X2X2X2X2X2X2X",
"2X2X2X2X2X2X2X2X2X2X2X~./ - . 8 ,.OX2X2X2X2X2X2X2X2X2X2X2X;X&X;X2X2X2X2X2X2X2X2X2X2XR.^ - . 8 1.&X2X2X2X2X2X2X2X2X2X2X2X2X2X2X2X",
"2X2X2X2X2X2X2X2X2X2X2X/.) - . 5 ,.&X2X2X2X2X2X2X2X2X2X2X2X2X2X2X2X2X2X2X2X2X2X2X2X;XS.T - . 8 4.OX2X2X2X2X2X2X2X2X2X2X2X2X2X2X2X",
"2X2X2X2X2X2X2X2X2X2X2X}.X.- . 5 =.OX2X2X2X2X2X2X2X2X2X2X2X2X2X2X2X2X2X2X2X2X2X2X2X@Xg.V & o w 4.@X2X2X2X2X2X2X2X2X2X2X2X2X2X2X2X",
"2X2X2X2X2X2X2X2X2X2X2X&X4.3 . <  . X2X2X2X2X2X2X2X2X2X2X2X2X2X2X2X2X2X2X2X2X2X2X;X/.,.f # # l r.&X2X2X2X2X2X2X2X2X2X2X2X2X2X2X2X",
"2X2X2X2X2X2X2X2X2X2X2X;Xn.g . + S R.2X2X2X2X2X2X2X2X2X2X2X2X2X2X2X2X2X2X2X2X2X;X(.g.T 3 + < G n.&X2X2X2X2X2X2X2X2X2X2X2X2X2X2X2X",
"2X2X2X2X2X2X2X2X2X2X2X2X(.R + . 5 r.;X2X2X2X2X2X2X2X2X2X2X2X2X2X2X2X2X2X2X2X&XQ.p.R i & + w X.R.;X2X2X2X2X2X2X2X2X2X2X2X2X2X2X2X",
"2X2X2X2X2X2X2X2X2X2X2X2X;Xp.w . + S Y.2X2X2X2X2X2X2X2X2X2X2X2X2X2X2X2X2X;X}.S.4.G 8 # o < M r.}.2X2X2X2X2X2X2X2X2X2X2X2X2X2X2X2X",
"2X2X2X2X2X2X2X2X2X2X2X2X2X(.^ # . & [ ].2X2X2X2X2X2X2X2X2X2X2X2X2X2X;X XJ.r.] v 3 + o < v %.J.=X2X2X2X2X2X2X2X2X2X2X2X2X2X2X2X2X",
"2X2X2X2X2X2X2X2X2X2X2X2X2X2XS.v . . <  .].2X2X2X2X2X2X2X2X2X2X2X;X&XQ.l.[ M 8 - + + 2 v &.S.OX2X2X2X2X2X2X2X2X2X2X2X2X2X2X2X2X2X",
"2X2X2X2X2X2X2X2X2X2X2X2X2X2X;Xl.a . . < ) Y.;X2X2X2X2X2X2X;X&X}.Y.v.:.J w - + o & w G 4.J.OX2X2X2X2X2X2X2X2X2X2X2X2X2X2X2X2X2X2X",
"2X2X2X2X2X2X2X2X2X2X2X2X2X2X2X&Xp.f . . # V r.E.OX&X&XOX~.S.g.4.} S i < + . & 5 v [ g.E.&X2X2X2X2X2X2X2X2X2X2X2X2X2X2X2X2X2X2X2X",
"2X2X2X2X2X2X2X2X2X2X2X2X2X2X2X2X&Xl.z + . . 8 V } 1.q.4.X.L v t 3 - + . + < l ) r.G.}.;X2X2X2X2X2X2X2X2X2X2X2X2X2X2X2X2X2X2X2X2X",
"2X2X2X2X2X2X2X2X2X2X2X2X2X2X2X2X2X;XZ.S # . . o & < 5 5 3 < # + . o & 2 i G :.Z.}.;X2X2X2X2X2X2X2X2X2X2X2X2X2X2X2X2X2X2X2X2X2X2X",
"2X2X2X2X2X2X2X2X2X2X2X2X2X2X2X2X2X2X2XR.} w # o . . . . . . + & 2 8 l L =.v.Q.&X2X2X2X2X2X2X2X2X2X2X2X2X2X2X2X2X2X2X2X2X2X2X2X2X",
"2X2X2X2X2X2X2X2X2X2X2X2X2X2X2X2X2X2X2X2XOXv.) M t 2 - - < 5 a V / =.r.C./.@X;X2X2X2X2X2X2X2X2X2X2X2X2X2X2X2X2X2X2X2X2X2X2X2X2X2X",
"2X2X2X2X2X2X2X2X2X2X2X2X2X2X2X2X2X2X2X2X2X;X}.J.l.4.X.} X.=.r.b.I.].@X;X2X2X2X2X2X2X2X2X2X2X2X2X2X2X2X2X2X2X2X2X2X2X2X2X2X2X2X2X",
"2X2X2X2X2X2X2X2X2X2X2X2X2X2X2X2X2X2X2X2X2X2X2X2X;X&XOX}.}. X&X=X;X2X2X2X2X2X2X2X2X2X2X2X2X2X2X2X2X2X2X2X2X2X2X2X2X2X2X2X2X2X2X2X",
"2X2X2X2X2X2X2X2X2X2X2X2X2X2X2X2X2X2X2X2X2X2X2X2X2X2X2X2X2X2X2X2X2X2X2X2X2X2X2X2X2X2X2X2X2X2X2X2X2X2X2X2X2X2X2X2X2X2X2X2X2X2X2X2X",
"2X2X2X2X2X2X2X2X2X2X2X2X2X2X2X2X2X2X2X2X2X2X2X2X2X2X2X2X2X2X2X2X2X2X2X2X2X2X2X2X2X2X2X2X2X2X2X2X2X2X2X2X2X2X2X2X2X2X2X2X2X2X2X2X",
"2X2X2X2X2X2X2X2X2X2X2X2X2X2X2X2X2X2X2X2X2X2X2X2X2X2X2X2X2X2X2X2X2X2X2X2X2X2X2X2X2X2X2X2X2X2X2X2X2X2X2X2X2X2X2X2X2X2X2X2X2X2X2X2X",
"2X2X2X2X2X2X2X2X2X2X2X2X2X2X2X2X2X2X2X2X2X2X2X2X2X2X2X2X2X2X2X2X2X2X2X2X2X2X2X2X2X2X2X2X2X2X2X2X2X2X2X2X2X2X2X2X2X2X2X2X2X2X2X2X",
"2X2X2X2X2X2X2X2X2X2X2X2X2X2X2X2X2X2X2X2X2X2X2X2X2X2X2X2X2X2X2X2X2X2X2X2X2X2X2X2X2X2X2X2X2X2X2X2X2X2X2X2X2X2X2X2X2X2X2X2X2X2X2X2X",
"2X2X2X2X2X2X2X2X2X2X2X2X2X2X2X2X2X2X2X2X2X2X2X2X2X2X2X2X2X2X2X2X2X2X2X2X2X2X2X2X2X2X2X2X2X2X2X2X2X2X2X2X2X2X2X2X2X2X2X2X2X2X2X2X",
"2X2X2X2X2X2X2X2X2X2X2X2X2X2X2X2X2X2X2X2X2X2X2X2X2X2X2X2X2X2X2X2X2X2X2X2X2X2X2X2X2X2X2X2X2X2X2X2X2X2X2X2X2X2X2X2X2X2X2X2X2X2X2X2X",
"2X2X2X2X2X2X2X2X2X2X2X2X2X2X2X2X2X2X2X2X2X2X2X2X2X2X2X2X2X2X2X2X2X2X2X2X2X2X2X2X2X2X2X2X2X2X2X2X2X2X2X2X2X2X2X2X2X2X2X2X2X2X2X2X",
"2X2X2X2X2X2X2X2X2X2X2X2X2X2X2X2X2X2X2X2X2X2X2X2X2X2X2X2X2X2X2X2X2X2X2X2X2X2X2X2X2X2X2X2X2X2X2X2X2X2X2X2X2X2X2X2X2X2X2X2X2X2X2X2X",
"2X2X2X2X2X2X2X2X2X2X2X2X2X2X2X2X2X2X2X2X2X2X2X2X2X2X2X2X2X2X2X2X2X2X2X2X2X2X2X2X2X2X2X2X2X2X2X2X2X2X2X2X2X2X2X2X2X2X2X2X2X2X2X2X",
"2X2X2X2X2X2X2X2X2X2X2X2X2X2X2X2X2X2X2X2X2X2X2X2X2X2X2X2X2X2X2X2X2X2X2X2X2X2X2X2X2X2X2X2X2X2X2X2X2X2X2X2X2X2X2X2X2X2X2X2X2X2X2X2X"
};
