/* XPM */
static char *_146ec30fb1b4e32fe1c0c9932905c87uSjgLKaeimJdiTTF[] = {
/* columns rows colors chars-per-pixel */
"64 64 197 2 ",
"   c #4BCB63",
".  c #4CCB64",
"X  c #4DCC65",
"o  c #4ECC65",
"O  c #4FCC66",
"+  c #4FCC67",
"@  c #50CC67",
"#  c #51CD68",
"$  c #51CD69",
"%  c #52CD69",
"&  c #53CD6A",
"*  c #54CE6B",
"=  c #55CE6C",
"-  c #56CE6C",
";  c #56CE6D",
":  c #57CE6D",
">  c #58CF6E",
",  c #58CF6F",
"<  c #59CF6F",
"1  c #5ACF70",
"2  c #5BCF70",
"3  c #5BD071",
"4  c #5CD072",
"5  c #5DD072",
"6  c #5DD073",
"7  c #5ED174",
"8  c #5FD174",
"9  c #5FD175",
"0  c #60D175",
"q  c #61D176",
"w  c #62D277",
"e  c #63D278",
"r  c #64D278",
"t  c #64D279",
"y  c #65D37A",
"u  c #66D37A",
"i  c #67D37B",
"p  c #68D37C",
"a  c #69D47D",
"s  c #6AD47E",
"d  c #6BD47F",
"f  c #6CD580",
"g  c #6DD580",
"h  c #6ED581",
"j  c #6ED582",
"k  c #6FD582",
"l  c #70D683",
"z  c #71D684",
"x  c #73D786",
"c  c #75D787",
"v  c #75D788",
"b  c #76D788",
"n  c #77D889",
"m  c #78D88A",
"M  c #79D88B",
"N  c #7AD88B",
"B  c #7AD98C",
"V  c #7BD98D",
"C  c #7FDA90",
"Z  c #80DA91",
"A  c #82DB93",
"S  c #83DB93",
"D  c #84DC95",
"F  c #85DC95",
"G  c #86DC96",
"H  c #88DD98",
"J  c #89DD99",
"K  c #8ADD99",
"L  c #8BDE9B",
"P  c #8DDE9C",
"I  c #8EDE9D",
"U  c #8FDF9E",
"Y  c #90DF9F",
"T  c #91DFA0",
"R  c #92DFA0",
"E  c #93E0A1",
"W  c #94E0A3",
"Q  c #95E0A3",
"!  c #96E1A4",
"~  c #97E1A4",
"^  c #97E1A5",
"/  c #98E1A6",
"(  c #99E1A6",
")  c #99E2A7",
"_  c #9AE2A8",
"`  c #9BE2A8",
"'  c #9BE2A9",
"]  c #9CE2A9",
"[  c #9DE3AA",
"{  c #9EE3AB",
"}  c #9FE3AC",
"|  c #A1E4AE",
" . c #A3E4AF",
".. c #A4E5B0",
"X. c #A5E5B1",
"o. c #A7E6B3",
"O. c #A9E6B4",
"+. c #AAE6B5",
"@. c #AAE7B6",
"#. c #ABE7B6",
"$. c #ACE7B7",
"%. c #ADE7B8",
"&. c #AFE8B9",
"*. c #AFE8BA",
"=. c #B0E8BA",
"-. c #B1E8BB",
";. c #B2E9BC",
":. c #B3E9BD",
">. c #B3E9BE",
",. c #B4E9BE",
"<. c #B6EABF",
"1. c #B6EAC0",
"2. c #B7EAC1",
"3. c #B8EAC1",
"4. c #B9EBC2",
"5. c #BAEBC3",
"6. c #BBEBC4",
"7. c #BCECC5",
"8. c #BDECC5",
"9. c #BEECC7",
"0. c #BFEDC8",
"q. c #C0EDC9",
"w. c #C1EDC9",
"e. c #C2EDCA",
"r. c #C3EECB",
"t. c #C4EECC",
"y. c #C6EECD",
"u. c #C7EFCE",
"i. c #C7EFCF",
"p. c #C8EFCF",
"a. c #C9F0D1",
"s. c #CAF0D1",
"d. c #CBF0D2",
"f. c #CCF0D3",
"g. c #CDF1D4",
"h. c #CEF1D4",
"j. c #CEF1D5",
"k. c #CFF1D5",
"l. c #D0F1D6",
"z. c #D0F2D7",
"x. c #D1F2D7",
"c. c #D2F2D8",
"v. c #D3F2D8",
"b. c #D3F2D9",
"n. c #D4F3DA",
"m. c #D5F3DA",
"M. c #D5F3DB",
"N. c #D6F3DC",
"B. c #D7F3DC",
"V. c #D7F4DD",
"C. c #D8F4DD",
"Z. c #D9F4DE",
"A. c #DAF4DF",
"S. c #DCF5E1",
"D. c #DDF5E2",
"F. c #DEF5E2",
"G. c #DFF6E3",
"H. c #E0F6E4",
"J. c #E1F6E5",
"K. c #E2F7E6",
"L. c #E3F7E7",
"P. c #E4F7E8",
"I. c #E5F7E8",
"U. c #E6F8E9",
"Y. c #E6F8EA",
"T. c #E7F8EA",
"R. c #E8F8EB",
"E. c #E9F9EC",
"W. c #EAF9ED",
"Q. c #EBF9ED",
"!. c #EBF9EE",
"~. c #ECF9EE",
"^. c #EDFAEF",
"/. c #EDFAF0",
"(. c #EEFAF0",
"). c #EFFAF1",
"_. c #EFFBF2",
"`. c #F0FBF2",
"'. c #F1FBF3",
"]. c #F2FBF3",
"[. c #F2FBF4",
"{. c #F3FCF5",
"}. c #F4FCF5",
"|. c #F4FCF6",
" X c #F5FCF6",
".X c #F6FCF7",
"XX c #F7FDF8",
"oX c #F8FDF9",
"OX c #F9FDF9",
"+X c #F9FDFA",
"@X c #FAFEFB",
"#X c #FBFEFB",
"$X c #FBFEFC",
"%X c #FCFEFD",
"&X c #FDFEFD",
"*X c #FEFFFE",
"=X c white",
/* pixels */
"=X=X=X=X=X=X=X=X=X=X=X=X=X=X=X=X=X=X=X=X=X=X=X=X=X=X=X=X=X=X=X=X=X=X=X=X=X=X=X=X=X=X=X=X=X=X=X=X=X=X=X=X=X=X=X=X=X=X=X=X=X=X=X=X",
"=X=X=X=X=X=X=X=X=X=X=X=X=X=X=X=X=X=X=X=X=X=X=X=X=X=X=X=X=X=X=X=X=X=X=X=X=X=X=X=X=X=X=X=X=X=X=X=X=X=X=X=X=X=X=X=X=X=X=X=X=X=X=X=X",
"=X=X=X=X=X=X=X=X=X=X=X=X=X=X=X=X=X=X=X=X=X=X=X=X=X=X=X=X=X=X=X=X=X=X=X=X=X=X=X=X=X=X=X=X=X=X=X=X=X=X=X=X=X=X=X=X=X=X=X=X=X=X=X=X",
"=X=X=X=X=X=X=X=X=X=X=X=X=X=X=X=X=X=X=X=X=X=X=X=X=X=X=X=X=X=X=X=X=X=X=X=X=X=X=X=X=X=X=X=X=X=X=X=X=X=X=X=X=X=X=X=X=X=X=X=X=X=X=X=X",
"=X=X=X=X=X=X=X=X=X=X=X=X=X=X=X=X=X=X=X=X=X=X=X=X=X=X=X=X=X=X=X=X=X=X=X=X=X=X=X=X=X=X=X=X=X=X=X=X=X=X=X=X=X=X=X=X=X=X=X=X=X=X=X=X",
"=X=X=X=X=X=X=X=X=X=X=X=X=X=X=X=X=X=X=X=X=X=X=X=X=X=X=X=X=X=X=X=X=X=X=X=X=X=X=X=X=X=X=X=X=X=X=X=X=X=X=X=X=X=X=X=X=X=X=X=X=X=X=X=X",
"=X=X=X=X=X=X=X=X=X=X=X=X=X=X=X=X=X=X=X=X=X=X=X=X=X=X=X=X=X=X=X=X=X=X=X=X=X=X=X=X=X=X=X=X=X=X=X=X=X=X=X=X=X=X=X=X=X=X=X=X=X=X=X=X",
"=X=X=X=X=X=X=X=X=X=X=X=X=X=X=X=X=X=X=X=X=X=X=X=X=X=X#X#X#X#X#X=X=X=X=X=X=X=X=X=X=X=X=X=X=X=X=X=X=X=X=X=X=X=X=X=X=X=X=X=X=X=X=X=X",
"=X=X=X=X=X=X=X=X=X=X=X=X=X=X=X=X=X=X=X=X=X=X=X=XXX~.G.n.x.x.c.Z.J.!.[.#X=X=X=X=X=X=X=X=X=X=X=X=X=X=X=X=X=X=X=X=X=X=X=X=X=X=X=X=X",
"=X=X=X=X=X=X=X=X=X=X=X=X=X=X=X=X=X=X=X=X=X=X#X`.Z.6.' F V N N C J ^ ..7.n.~.#X=X=X=X=X=X=X=X=X=X=X=X=X=X=X=X=X=X=X=X=X=X=X=X=X=X",
"=X=X=X=X=X=X=X=X=X=X=X=X=X=X=X=X=X=X=X=X=X#X!.j. .b 0 - $ $ $ $ $ $ > 7 l Y e.~.=X=X=X=X=X=X=X=X=X=X=X=X=X=X=X=X=X=X=X=X=X=X=X=X",
"=X=X=X=X=X=X=X=X=X=X=X=X=X=X=X=X=X=X=X=X#XU.e.^ k 1 + @ $ $ $ @ + + . . + @ 7 ^ G.=X=X=X=X=X=X=X=X=X=X=X=X=X=X=X=X=X=X=X=X=X=X=X",
"=X=X=X=X=X=X=X=X=X=X=X=X=X=X=X=X=X=X=X#XP.7.J t - $ - 0 k n N b l a 0 > @ . . $ P P.=X=X=X=X=X=X=X=X=X=X=X=X=X=X=X=X=X=X=X=X=X=X",
"=X=X=X=X=X=X=X=X=X=X=X=X=X=X=X=X=X=X=X`.t.F 0 $ + > l W 1.a.j.j.a.t.7.O.J 0 .   > :..X=X=X=X=X=X=X=X=X=X=X=X=X=X=X=X=X=X=X=X=X=X",
"=X=X=X=X=X=X=X=X=X=X=X=X=X=X=X=X=X=X=XU.O.t @ $ 4 x  .x./.#X#X#X#X#X#X.XU.1.a + - ' U.=X=X=X=X=X=X=X=X=X=X=X=X=X=X=X=X=X=X=X=X=X",
"=X=X=X=X=X=X=X=X=X=X=X=X=X=X=X=X=X=X$XG.^ 1 + > C $.N.`.$X=X=X=X=X=X=X=X=XXXa.P Z =.R.=X=X=X=X=X=X=X=X=X=X=X=X=X=X=X=X=X=X=X=X=X",
"=X=X=X=X=X=X=X=X=X=X=X=X=X=X=X=X=X=X#XN.J - + 0 ..G..X=X=X=X=X=X=X=X=X=X=X=X#X!.V.J..X=X=X=X=X=X=X=X=X=X=X=X=X=X=X=X=X=X=X=X=X=X",
"=X=X=X=X=X=X=X=X=X=X=X=X=X=X=X=X=X=X#Xj.Z - + a ,./.=X=X=X=X=X=X=X=X=X=X=X=X=X=X$X$X=X=X=X=X=X=X=X=X=X=X=X=X=X=X=X=X=X=X=X=X=X=X",
"=X=X=X=X=X=X=X=X=X=X=X=X=X=X=X=X=X=XXXa.N $ $ l 7..X=X=X=X=X=X=X=X=X=X=X=X=X=X=X=X=X=X=X=X=X=X=X=X=X=X=X=X=X=X=X=X=X=X=X=X=X=X=X",
"=X=X=X=X=X=X=X=X=X=X=X=X=X=X=X=X=X=X.Xt.c $ $ c t..X=X=X=X=X=X=X=X=X=X=X=X=X=X=X=X=X=X=X=X=X=X=X=X=X=X=X=X=X=X=X=X=X=X=X=X=X=X=X",
"=X=X=X=X=X=X=X=X=X=X=X=X=X=X=X=X=X=X.X7.l $ $ N p.XX=X=X=X=X=X=X=X=X=X=X=X=X=X=X=X=X=X=X=X=X=X=X=X=X=X=X=X=X=X=X=X=X=X=X=X=X=X=X",
"=X=X=X=X=X=X=X=X=X=X=X=X=X=X=X=X=X=X{.1.p $ * C f.#X=X=X=X=X=X=X=X=X=X=X=X=X=X=X=X=X=X=X=X=X=X=X=X=X=X=X=X=X=X=X=X=X=X=X=X=X=X=X",
"=X=X=X=X=X=X=X=X=X=X=X=X=X=X=X=X=X=X[.,.t + - J c.#X=X=X=X=X=X=X=X=X=X=X=X=X=X=X=X=X=X=X=X=X=X=X=X=X=X=X=X=X=X=X=X=X=X=X=X=X=X=X",
"=X=X=X=X=X=X=X=X=X=X=X=X=X=X=X=X=X=X.X7.t + - P Z.$X=X=X=X=X=X=X=X=X=X=X=X=X=X=X=X=X=X=X=X=X=X=X=X=X=X=X=X=X=X=X=X=X=X=X=X=X=X=X",
"=X=X=X=X=X=X=X=X=X=X=X=X=X=X=X=X=X=X#Xj.x + $ N x.$X=X=X=X=X=X=X=X=X=X=X=X=X=X=X=X=X=X=X=X=X=X=X=X=X=X=X=X=X=X=X=X=X=X=X=X=X=X=X",
"=X=X=X=X=X=X=X=X=X=X=X=X=X=X=X=X=X=X=X!.^ $ . > ^ n.U.U.R.R.!.R.R.R.R.U.!.~.[.#X=X=X=X=X=X=X=X=X=X=X=X=X=X=X=X=X=X=X=X=X=X=X=X=X",
"=X=X=X=X=X=X=X=X=X=X=X=X=X=X=X=X=X=X=X$Xj.x + . > V W ' ' ' [ ' ' ' [ [ [  .O.e.G.XX=X=X=X=X=X=X=X=X=X=X=X=X=X=X=X=X=X=X=X=X=X=X",
"=X=X=X=X=X=X=X=X=X=X=X=X=X=X=X=X=X=X=X=X.X6.t + . + $ - > > > > > - > > > > > 0 N 4./.=X=X=X=X=X=X=X=X=X=X=X=X=X=X=X=X=X=X=X=X=X",
"=X=X=X=X=X=X=X=X=X=X=X=X=X=X=X=X=X=X=X=X=X.X7.b * + + + + + + + + + + + + + + . + 7 ../.=X=X=X=X=X=X=X=X=X=X=X=X=X=X=X=X=X=X=X=X",
"=X=X=X=X=X=X=X=X=X=X=X=X=X=X=X=X=X=X=X=X=X=X#XZ. .V p t 0 t t e t t t e e 0 7 $ + . 4 %.`.=X=X=X=X=X=X=X=X=X=X=X=X=X=X=X=X=X=X=X",
"=X=X=X=X=X=X=X=X=X=X=X=X=X=X=X=X=X=X=X=X=X=X=X=X{.G.a.0.6.6.6.4.4.4.4.6.4.4.:.( 0 + . t t.#X=X=X=X=X=X=X=X=X=X=X=X=X=X=X=X=X=X=X",
"=X=X=X=X=X=X=X=X=X=X=X=X=X=X=X=X=X=X=X=X=X=X=X=X=X=X$X#X#XXXXXXXXXXX#XXXXXXXXX~.*.7 + $ F J.=X=X=X=X=X=X=X=X=X=X=X=X=X=X=X=X=X=X",
"=X=X=X=X=X=X=X=X=X=X=X=X=X=X=X=X=X=X=X=X=X=X=X=X=X=X=X=X=X=X=X=X=X=X=X=X=X=X=X=XU.T * + 0 4.XX=X=X=X=X=X=X=X=X=X=X=X=X=X=X=X=X=X",
"=X=X=X=X=X=X=X=X=X=X=X=X=X=X=X=X=X=X=X=X=X=X=X=X=X=X=X=X=X=X=X=X=X=X=X=X=X=X=X=X#Xe.t + $ Y U.=X=X=X=X=X=X=X=X=X=X=X=X=X=X=X=X=X",
"=X=X=X=X=X=X=X=X=X=X=X=X=X=X=X=X=X=X=X=X=X=X=X=X=X=X=X=X=X=X=X=X=X=X=X=X=X=X=X=X=XJ.F $ + k a.#X=X=X=X=X=X=X=X=X=X=X=X=X=X=X=X=X",
"=X=X=X=X=X=X=X=X=X=X=X=X=X=X=X=X=X=X=X=X=X=X=X=X=X=X=X=X=X=X=X=X=X=X=X=X=X=X=X=X=X[.O.1 + 1 ..`.=X=X=X=X=X=X=X=X=X=X=X=X=X=X=X=X",
"=X=X=X=X=X=X=X=X=X=X=X=X=X=X=X=X$X[./..X=X=X=X=X=X=X=X=X=X=X=X=X=X=X=X=X=X=X=X=X=X#Xa.k + @ F G.=X=X=X=X=X=X=X=X=X=X=X=X=X=X=X=X",
"=X=X=X=X=X=X=X=X=X=X=X=X=X=X=X=X.XN.,.4.G.#X=X=X=X=X=X=X=X=X=X=X=X=X=X=X=X=X=X=X=X=XJ.J $ + a t.#X=X=X=X=X=X=X=X=X=X=X=X=X=X=X=X",
"=X=X=X=X=X=X=X=X=X=X=X=X=X=X=X=X.Xe.c 0 C t.{.=X=X=X=X=X=X=X=X=X=X=X=X=X=X=X=X=X=X=X`...3 + 3 O.`.=X=X=X=X=X=X=X=X=X=X=X=X=X=X=X",
"=X=X=X=X=X=X=X=X=X=X=X=X=X=X=X=X#Xc.n + + t $.!.=X=X=X=X=X=X=X=X=X=X=X=X=X=X=X=X=X=XXX4.t + - W U.=X=X=X=X=X=X=X=X=X=X=X=X=X=X=X",
"=X=X=X=X=X=X=X=X=X=X=X=X=X=X=X=X=X.X:.0 . . 1 T c..X=X=X=X=X=X=X=X=X=X=X=X=X=X=X=X=X.Xe.k + $ Z Z.=X=X=X=X=X=X=X=X=X=X=X=X=X=X=X",
"=X=X=X=X=X=X=X=X=X=X=X=X=X=X=X=X=X=X`.:.t + . $ l *.U.=X=X=X=X=X=X=X=X=X=X=X=X=X=X=X~.,.k $ $ V j.#X=X=X=X=X=X=X=X=X=X=X=X=X=X=X",
"=X=X=X=X=X=X=X=X=X=X=X=X=X=X=X=X=X=X=X.Xe.x $ . + 1 P c.#X=X=X=X=X=X=X=X=X=X=X=X$X~.x.( 0 $ * C j.#X=X=X=X=X=X=X=X=X=X=X=X=X=X=X",
"=X=X=X=X=X=X=X=X=X=X=X=X=X=X=X=X=X=X=X=X#Xn.T 4 + . $ x 7./.=X=X=X=X=X=X=X=X#X.XJ.t.' x -   1 Y N.#X=X=X=X=X=X=X=X=X=X=X=X=X=X=X",
"=X=X=X=X=X=X=X=X=X=X=X=X=X=X=X=X=X=X=X=X=X=X!.4.b $ . + 0 ( n./..XXX.X.X`.U.N.e.O.F t - $ - k %.U.$X=X=X=X=X=X=X=X=X=X=X=X=X=X=X",
"=X=X=X=X=X=X=X=X=X=X=X=X=X=X=X=X=X=X=X=X=X=X=X#XV.E > . + $ k ( :.6.4.1.:...Y N t 3 $ + > k ' x..X=X=X=X=X=X=X=X=X=X=X=X=X=X=X=X",
"=X=X=X=X=X=X=X=X=X=X=X=X=X=X=X=X=X=X=X=X=X=X=X=X=X!.*.a $ . . $ 4 0 0 0 7 4 1 * + + @ 3 x } j./.=X=X=X=X=X=X=X=X=X=X=X=X=X=X=X=X",
"=X=X=X=X=X=X=X=X=X=X=X=X=X=X=X=X=X=X=X=X=X=X=X=X=X=XXXj.P 7 + . + + + . + . + @ - 1 t F =.N./.=X=X=X=X=X=X=X=X=X=X=X=X=X=X=X=X=X",
"=X=X=X=X=X=X=X=X=X=X=X=X=X=X=X=X=X=X=X=X=X=X=X=X=X=X=X=XR.4.F e > - > > 1 1 7 a N T O.t.J..X=X=X=X=X=X=X=X=X=X=X=X=X=X=X=X=X=X=X",
"=X=X=X=X=X=X=X=X=X=X=X=X=X=X=X=X=X=X=X=X=X=X=X=X=X=X=X=X=X#XU.t.$.[ ' ' [ ..*.4.t.Z.R..X#X=X=X=X=X=X=X=X=X=X=X=X=X=X=X=X=X=X=X=X",
"=X=X=X=X=X=X=X=X=X=X=X=X=X=X=X=X=X=X=X=X=X=X=X=X=X=X=X=X=X=X=X#X.X~.R.!.!./.`..XXX#X=X=X=X=X=X=X=X=X=X=X=X=X=X=X=X=X=X=X=X=X=X=X",
"=X=X=X=X=X=X=X=X=X=X=X=X=X=X=X=X=X=X=X=X=X=X=X=X=X=X=X=X=X=X=X=X=X=X=X=X=X=X=X=X=X=X=X=X=X=X=X=X=X=X=X=X=X=X=X=X=X=X=X=X=X=X=X=X",
"=X=X=X=X=X=X=X=X=X=X=X=X=X=X=X=X=X=X=X=X=X=X=X=X=X=X=X=X=X=X=X=X=X=X=X=X=X=X=X=X=X=X=X=X=X=X=X=X=X=X=X=X=X=X=X=X=X=X=X=X=X=X=X=X",
"=X=X=X=X=X=X=X=X=X=X=X=X=X=X=X=X=X=X=X=X=X=X=X=X=X=X=X=X=X=X=X=X=X=X=X=X=X=X=X=X=X=X=X=X=X=X=X=X=X=X=X=X=X=X=X=X=X=X=X=X=X=X=X=X",
"=X=X=X=X=X=X=X=X=X=X=X=X=X=X=X=X=X=X=X=X=X=X=X=X=X=X=X=X=X=X=X=X=X=X=X=X=X=X=X=X=X=X=X=X=X=X=X=X=X=X=X=X=X=X=X=X=X=X=X=X=X=X=X=X",
"=X=X=X=X=X=X=X=X=X=X=X=X=X=X=X=X=X=X=X=X=X=X=X=X=X=X=X=X=X=X=X=X=X=X=X=X=X=X=X=X=X=X=X=X=X=X=X=X=X=X=X=X=X=X=X=X=X=X=X=X=X=X=X=X",
"=X=X=X=X=X=X=X=X=X=X=X=X=X=X=X=X=X=X=X=X=X=X=X=X=X=X=X=X=X=X=X=X=X=X=X=X=X=X=X=X=X=X=X=X=X=X=X=X=X=X=X=X=X=X=X=X=X=X=X=X=X=X=X=X",
"=X=X=X=X=X=X=X=X=X=X=X=X=X=X=X=X=X=X=X=X=X=X=X=X=X=X=X=X=X=X=X=X=X=X=X=X=X=X=X=X=X=X=X=X=X=X=X=X=X=X=X=X=X=X=X=X=X=X=X=X=X=X=X=X",
"=X=X=X=X=X=X=X=X=X=X=X=X=X=X=X=X=X=X=X=X=X=X=X=X=X=X=X=X=X=X=X=X=X=X=X=X=X=X=X=X=X=X=X=X=X=X=X=X=X=X=X=X=X=X=X=X=X=X=X=X=X=X=X=X",
"=X=X=X=X=X=X=X=X=X=X=X=X=X=X=X=X=X=X=X=X=X=X=X=X=X=X=X=X=X=X=X=X=X=X=X=X=X=X=X=X=X=X=X=X=X=X=X=X=X=X=X=X=X=X=X=X=X=X=X=X=X=X=X=X",
"=X=X=X=X=X=X=X=X=X=X=X=X=X=X=X=X=X=X=X=X=X=X=X=X=X=X=X=X=X=X=X=X=X=X=X=X=X=X=X=X=X=X=X=X=X=X=X=X=X=X=X=X=X=X=X=X=X=X=X=X=X=X=X=X",
"=X=X=X=X=X=X=X=X=X=X=X=X=X=X=X=X=X=X=X=X=X=X=X=X=X=X=X=X=X=X=X=X=X=X=X=X=X=X=X=X=X=X=X=X=X=X=X=X=X=X=X=X=X=X=X=X=X=X=X=X=X=X=X=X",
"=X=X=X=X=X=X=X=X=X=X=X=X=X=X=X=X=X=X=X=X=X=X=X=X=X=X=X=X=X=X=X=X=X=X=X=X=X=X=X=X=X=X=X=X=X=X=X=X=X=X=X=X=X=X=X=X=X=X=X=X=X=X=X=X",
"=X=X=X=X=X=X=X=X=X=X=X=X=X=X=X=X=X=X=X=X=X=X=X=X=X=X=X=X=X=X=X=X=X=X=X=X=X=X=X=X=X=X=X=X=X=X=X=X=X=X=X=X=X=X=X=X=X=X=X=X=X=X=X=X"
};
